<svg xmlns="http://www.w3.org/2000/svg" xmlns:xlink="http://www.w3.org/1999/xlink" width="24" height="24" viewBox="0 0 24 24"><defs><style>.a{fill:#fff;stroke:#707070;}.b{clip-path:url(#a);}</style><clipPath id="a"><rect class="a" width="24" height="24" transform="translate(320 16)"/></clipPath></defs><g class="b" transform="translate(-320 -16)"><path d="M9.142,1.43a1,1,0,0,1,1.715,0l2.484,4.141a1,1,0,0,0,.6.452l4.587,1.224a1,1,0,0,1,.526,1.587l-3.073,3.884a1,1,0,0,0-.214.683l.312,4.992a1,1,0,0,1-1.385.984l-4.308-1.808a1,1,0,0,0-.774,0L5.305,19.377a1,1,0,0,1-1.385-.984L4.232,13.4a1,1,0,0,0-.214-.683L.945,8.833a1,1,0,0,1,.526-1.587L6.059,6.023a1,1,0,0,0,.6-.452Z" transform="translate(322 18)"/></g></svg>