<svg xmlns="http://www.w3.org/2000/svg" xmlns:xlink="http://www.w3.org/1999/xlink" width="24" height="24" viewBox="0 0 24 24"><defs><style>.a,.e{fill:#fff;}.a{stroke:#707070;}.b{clip-path:url(#a);}.c,.g{fill:none;}.c{stroke:#8fabce;stroke-width:2px;}.d{fill:#8fabce;}.f,.h{stroke:none;}.h{fill:#8fabce;}</style><clipPath id="a"><rect class="a" width="24" height="24" transform="translate(149 139)"/></clipPath></defs><g class="b" transform="translate(-149 -139)"><g class="c" transform="translate(152 142)"><circle class="f" cx="9" cy="9" r="9"/><circle class="g" cx="9" cy="9" r="8"/></g><circle class="d" cx="4" cy="4" r="4" transform="translate(157 147)"/><g class="e" transform="translate(607 140)"><path class="f" d="M -445.4996032714844 21.49960136413574 L -446.5003051757812 21.49960136413574 L -446.5003051757812 19.49990081787109 L -445.4996032714844 19.49990081787109 L -445.4996032714844 21.49960136413574 Z M -435.4997253417969 11.49970054626465 L -437.5003051757812 11.49970054626465 L -437.5003051757812 10.49990081787109 L -435.4997253417969 10.49990081787109 L -435.4997253417969 11.49970054626465 Z M -454.4996032714844 11.49970054626465 L -456.5002136230469 11.49970054626465 L -456.5002136230469 10.49990081787109 L -454.4996032714844 10.49990081787109 L -454.4996032714844 11.49970054626465 Z M -445.4996032714844 2.499700784683228 L -446.5003051757812 2.499700784683228 L -446.5003051757812 0.5000006556510925 L -445.4996032714844 0.5000006556510925 L -445.4996032714844 2.499700784683228 Z"/><path class="h" d="M -445.9996032714844 20.99960136413574 L -446.0003051757812 19.99990081787109 L -445.9996032714844 20.99960136413574 M -445.9996032714844 1.999700665473938 L -446.0003051757812 1.000000715255737 L -445.9996032714844 1.999700665473938 M -444.9996032714844 21.99960136413574 L -447.0003051757812 21.99960136413574 L -447.0003051757812 18.99990081787109 L -444.9996032714844 18.99990081787109 L -444.9996032714844 21.99960136413574 Z M -434.9997253417969 11.99970054626465 L -438.0003051757812 11.99970054626465 L -438.0003051757812 9.999900817871094 L -434.9997253417969 9.999900817871094 L -434.9997253417969 11.99970054626465 Z M -453.9996032714844 11.99970054626465 L -457.0002136230469 11.99970054626465 L -457.0002136230469 9.999900817871094 L -453.9996032714844 9.999900817871094 L -453.9996032714844 11.99970054626465 Z M -444.9996032714844 2.999700784683228 L -447.0003051757812 2.999700784683228 L -447.0003051757812 6.820678777330613e-07 L -444.9996032714844 6.820678777330613e-07 L -444.9996032714844 2.999700784683228 Z"/></g></g></svg>