<svg xmlns="http://www.w3.org/2000/svg" xmlns:xlink="http://www.w3.org/1999/xlink" width="24" height="24" viewBox="0 0 24 24"><defs><style>.a{fill:#fff;stroke:#707070;}.b{clip-path:url(#a);}</style><clipPath id="a"><rect class="a" width="24" height="24" transform="translate(-15 80)"/></clipPath></defs><g class="b" transform="translate(15 -80)"><path d="M8.142,1.43a1,1,0,0,1,1.715,0l2.129,3.549a1,1,0,0,0,.6.452l3.942,1.052a1,1,0,0,1,.526,1.587l-2.648,3.346a1,1,0,0,0-.214.683l.268,4.293a1,1,0,0,1-1.385.984l-3.69-1.549a1,1,0,0,0-.774,0l-3.69,1.549a1,1,0,0,1-1.385-.984L3.806,12.1a1,1,0,0,0-.214-.683L.945,8.069a1,1,0,0,1,.526-1.587L5.414,5.431a1,1,0,0,0,.6-.452Z" transform="translate(-12 83)"/></g></svg>