<svg xmlns="http://www.w3.org/2000/svg" xmlns:xlink="http://www.w3.org/1999/xlink" width="24" height="24" viewBox="0 0 24 24"><defs><style>.a,.c{fill:#fff;}.a{stroke:#707070;}.b{clip-path:url(#a);}.d,.e{stroke:none;}.e{fill:#b7c3cb;}</style><clipPath id="a"><rect class="a" width="24" height="24" transform="translate(320 16)"/></clipPath></defs><g class="b" transform="translate(-320 -16)"><g class="c" transform="translate(322 18)"><path class="d" d="M 15.08289051055908 19.9556999206543 C 14.88377094268799 19.95571136474609 14.68810081481934 19.91596984863281 14.50131130218506 19.83757019042969 L 10.19350051879883 18.02962112426758 C 10.13190078735352 18.00377082824707 10.06680107116699 17.99066162109375 10.00000095367432 17.99066162109375 C 9.933200836181641 17.99066162109375 9.868101119995117 18.00377082824707 9.806510925292969 18.02962112426758 L 5.49868106842041 19.83757019042969 C 5.311921119689941 19.91596031188965 5.116261005401611 19.9556999206543 4.917140960693359 19.9556999206543 C 4.505860805511475 19.9556999206543 4.106930732727051 19.78215026855469 3.822640895843506 19.47953987121582 C 3.537590980529785 19.17612075805664 3.394990921020508 18.77885055541992 3.421110868453979 18.36089134216309 L 3.733051061630249 13.36933040618896 C 3.740761041641235 13.24604034423828 3.702790975570679 13.12478065490723 3.626131057739258 13.02791118621826 L 0.5527309775352478 9.143671035766602 C 0.2382209599018097 8.746191024780273 0.1457409560680389 8.221680641174316 0.3053309619426727 7.740610599517822 C 0.4649309515953064 7.259541034698486 0.8525709509849548 6.894320964813232 1.342290997505188 6.763630867004395 L 5.929720878601074 5.5394606590271 C 6.055911064147949 5.505790710449219 6.162400722503662 5.425570964813232 6.229590892791748 5.313560962677002 L 8.713681221008301 1.172400832176208 C 8.987271308898926 0.7163007855415344 9.468131065368652 0.4440107941627502 10.00000095367432 0.4440107941627502 C 10.53186130523682 0.4440107941627502 11.01273059844971 0.7163007855415344 11.28632068634033 1.172390818595886 L 13.77041053771973 5.313570976257324 C 13.83759117126465 5.42556095123291 13.94408130645752 5.505780696868896 14.07027053833008 5.539450645446777 L 18.65771102905273 6.763620853424072 C 19.14743041992188 6.89431095123291 19.53508186340332 7.259541034698486 19.69467163085938 7.740620613098145 C 19.85426139831543 8.221691131591797 19.76177024841309 8.746191024780273 19.4472713470459 9.143671035766602 L 16.37387084960938 13.02790069580078 C 16.29721069335938 13.12478065490723 16.25924110412598 13.24604034423828 16.2669506072998 13.36933040618896 L 16.57888031005859 18.36090087890625 C 16.60499000549316 18.77881050109863 16.46240043640137 19.17606163024902 16.17737007141113 19.4794807434082 C 15.89307117462158 19.7821102142334 15.49415111541748 19.95568084716797 15.08289051055908 19.9556999206543 Z"/><path class="e" d="M 9.999997138977051 0.9440059661865234 C 9.668318748474121 0.9440059661865234 9.336641311645508 1.105871200561523 9.142451286315918 1.429601669311523 L 6.658360481262207 5.570771217346191 C 6.524721145629883 5.793550491333008 6.309640884399414 5.955571174621582 6.058640480041504 6.022561073303223 L 1.471200942993164 7.246730804443359 C 0.7760200500488281 7.43224048614502 0.4983711242675781 8.269170761108398 0.9448318481445312 8.833420753479004 L 4.018231391906738 12.7176513671875 C 4.171300888061523 12.91111087799072 4.247470855712891 13.15431022644043 4.232081413269043 13.40052032470703 L 3.920141220092773 18.39208030700684 C 3.873880386352539 19.13233184814453 4.621292114257812 19.66356086730957 5.305191040039062 19.37653160095215 L 9.613011360168457 17.56858062744141 C 9.860541343688965 17.46469116210938 10.1394510269165 17.46469116210938 10.38699054718018 17.56858062744141 L 14.69481086730957 19.37653160095215 C 15.37871265411377 19.6635627746582 16.1261100769043 19.1323299407959 16.0798511505127 18.39208030700684 L 15.76792144775391 13.40052032470703 C 15.75253105163574 13.15431022644043 15.82869148254395 12.91111087799072 15.98176097869873 12.7176513671875 L 19.0551700592041 8.833420753479004 C 19.50163078308105 8.269170761108398 19.2239818572998 7.43224048614502 18.5287914276123 7.246721267700195 L 13.94136047363281 6.022550582885742 C 13.69035148620605 5.955571174621582 13.47527122497559 5.793540954589844 13.34164047241211 5.570771217346191 L 10.85755062103271 1.429601669311523 C 10.66335582733154 1.105871200561523 10.33167552947998 0.9440059661865234 9.999997138977051 0.9440059661865234 M 10.00000095367432 -0.055999755859375 C 10.70913124084473 -0.055999755859375 11.35029125213623 0.3070602416992188 11.71509075164795 0.9151802062988281 L 14.19919109344482 5.056370735168457 L 18.78662109375 6.28053092956543 C 19.43959045410156 6.454780578613281 19.95645141601562 6.941750526428223 20.16924095153809 7.58319091796875 C 20.38202095031738 8.224610328674316 20.25871086120605 8.923951148986816 19.83938026428223 9.453920364379883 L 16.76596069335938 13.33815097808838 L 17.07789993286133 18.32971000671387 C 17.11272048950195 18.88685989379883 16.92231178283691 19.41679000854492 16.54174041748047 19.82187080383301 C 16.16332054138184 20.22467994689941 15.6315803527832 20.4556999206543 15.08286094665527 20.4556999206543 C 14.81693077087402 20.4556999206543 14.55617141723633 20.40285110473633 14.30781078338623 20.29861068725586 L 10.00000095367432 18.49066162109375 L 5.692180633544922 20.29861068725586 C 5.443811416625977 20.40285110473633 5.183051109313965 20.4556999206543 4.917140960693359 20.4556999206543 C 4.368391036987305 20.4556999206543 3.836631774902344 20.22467994689941 3.458211898803711 19.82188034057617 C 3.077661514282227 19.41680145263672 2.887260437011719 18.88687133789062 2.922090530395508 18.3297004699707 L 3.234031677246094 13.33815097808838 L 0.1606311798095703 9.453920364379883 C -0.2587089538574219 8.923951148986816 -0.3820285797119141 8.224600791931152 -0.1692295074462891 7.583170890808105 C 0.04356002807617188 6.941750526428223 0.5604209899902344 6.454780578613281 1.213371276855469 6.280540466308594 L 5.800810813903809 5.056370735168457 L 8.284900665283203 0.9152011871337891 C 8.649690628051758 0.3070602416992188 9.290850639343262 -0.055999755859375 10.00000095367432 -0.055999755859375 Z"/></g></g></svg>