<svg xmlns="http://www.w3.org/2000/svg" xmlns:xlink="http://www.w3.org/1999/xlink" width="205.853" height="58" viewBox="0 0 205.853 58"><defs><style>.a{fill:#070707;}.b{fill:#0c0c0c;}.c{filter:url(#e);}.d{filter:url(#c);}.e{filter:url(#a);}</style><filter id="a" x="59.482" y="0.42" width="47.322" height="54.96" filterUnits="userSpaceOnUse"><feOffset dy="3" input="SourceAlpha"/><feGaussianBlur stdDeviation="3" result="b"/><feFlood flood-opacity="0.161"/><feComposite operator="in" in2="b"/><feComposite in="SourceGraphic"/></filter><filter id="c" x="90.703" y="2.027" width="115.15" height="49.376" filterUnits="userSpaceOnUse"><feOffset dy="3" input="SourceAlpha"/><feGaussianBlur stdDeviation="3" result="d"/><feFlood flood-opacity="0.161"/><feComposite operator="in" in2="d"/><feComposite in="SourceGraphic"/></filter><filter id="e" x="0" y="0" width="65" height="58" filterUnits="userSpaceOnUse"><feOffset dy="3" input="SourceAlpha"/><feGaussianBlur stdDeviation="3" result="f"/><feFlood flood-opacity="0.122"/><feComposite operator="in" in2="f"/><feComposite in="SourceGraphic"/></filter></defs><g transform="translate(-58 -12)"><g transform="translate(107 2)"><g class="e" transform="matrix(1, 0, 0, 1, -49, 10)"><path class="a" d="M4.44-.6h10.6q.18,0,.18-.16V-4a1.3,1.3,0,0,0-.4-.97,1.326,1.326,0,0,0-.96-.39H2.58a.141.141,0,0,0-.16.16v1.46q0,.18.16.18h10.6V-2.4H2.58q-.16,0-.16.18V1a1.35,1.35,0,0,0,.39.98,1.3,1.3,0,0,0,.97.4H15.04a.159.159,0,0,0,.18-.18V.74q0-.16-.18-.16H4.44ZM17.2-11.36H15.22v-3.06q0-.16-.18-.16H13.36q-.18,0-.18.16V-6.4a.159.159,0,0,0,.18.18h1.68a.159.159,0,0,0,.18-.18V-9.46H17.2a.141.141,0,0,0,.16-.16V-11.2A.141.141,0,0,0,17.2-11.36ZM3.96-6.66a6.166,6.166,0,0,0,1.88.28A6.1,6.1,0,0,0,7.7-6.66a6.1,6.1,0,0,0,.8-.33,2.873,2.873,0,0,0,.68-.47,3.809,3.809,0,0,0,1.28-3.02,4.372,4.372,0,0,0-.3-1.62,3.426,3.426,0,0,0-.96-1.34,4.331,4.331,0,0,0-1.48-.83,5.851,5.851,0,0,0-1.88-.29,4.892,4.892,0,0,0-3.36,1.08,3.749,3.749,0,0,0-1.28,3,3.777,3.777,0,0,0,1.26,3A4.008,4.008,0,0,0,3.96-6.66Zm-.18-5.32a3.113,3.113,0,0,1,2.06-.58,2.907,2.907,0,0,1,2.02.62,1.829,1.829,0,0,1,.6,1.46,1.91,1.91,0,0,1-.58,1.5,3.054,3.054,0,0,1-2.04.6,3.088,3.088,0,0,1-2.06-.6,1.91,1.91,0,0,1-.58-1.5A1.91,1.91,0,0,1,3.78-11.98ZM29.66-.656H23.98V-5.424a.127.127,0,0,0-.144-.144H22.492q-.128,0-.128.144V-.656H17.9q-.128,0-.128.144V.736q0,.144.128.144H29.66A.127.127,0,0,0,29.8.736V-.512A.127.127,0,0,0,29.66-.656ZM18.7-11.312v1.328q0,.144.128.144H27.26v6.528q0,.144.128.144h1.36q.128,0,.128-.144v-7.04a1.08,1.08,0,0,0-.312-.784,1.04,1.04,0,0,0-.776-.32h-8.96Q18.7-11.456,18.7-11.312ZM4.608,12.192a6.972,6.972,0,0,0,1.056,1.344,8.77,8.77,0,0,0,2.3,1.616.121.121,0,0,0,.1.016A.153.153,0,0,0,8.16,15.1l.576-1.2q.064-.112-.064-.176a6.107,6.107,0,0,1-2.816-2.592,3.288,3.288,0,0,1-.384-1q-.064-.408-.064-.44V8.688q0-.144-.128-.144H3.952a.127.127,0,0,0-.144.144V9.712a1.716,1.716,0,0,1-.048.384,4.533,4.533,0,0,1-.336.96,4.79,4.79,0,0,1-.376.616,5.671,5.671,0,0,1-.576.68,6.45,6.45,0,0,1-.816.7,8.267,8.267,0,0,1-1.1.664A.147.147,0,0,0,.5,13.9l.576,1.2q.064.128.192.048a8.833,8.833,0,0,0,2.3-1.616A6.33,6.33,0,0,0,4.608,12.192Zm.8-2.48V9.7Zm6.352,6.672H1.792q-.128,0-.128.144v1.248q0,.144.128.144H11.76a.127.127,0,0,0,.144-.144V16.528A.127.127,0,0,0,11.76,16.384Zm0,3.984H10.624l.176-1.936q.032-.144-.128-.144H9.328a.113.113,0,0,0-.128.128l-.208,1.952H4.576l-.208-1.952a.113.113,0,0,0-.128-.128H2.9a.127.127,0,0,0-.144.144l.192,1.936H1.792q-.128,0-.128.144V21.76q0,.144.128.144H11.76a.127.127,0,0,0,.144-.144V20.512A.127.127,0,0,0,11.76,20.368Zm0-12.032H10.416q-.144,0-.144.128V15.44a.127.127,0,0,0,.144.144H11.76a.127.127,0,0,0,.144-.144V8.464Q11.9,8.336,11.76,8.336Zm9.28,4.1a14.972,14.972,0,0,0,2.51-.19,9.47,9.47,0,0,0,1.95-.53A3.925,3.925,0,0,0,27,10.64a2.549,2.549,0,0,0,.64-1.72,3.319,3.319,0,0,0-.07-.62,2.277,2.277,0,0,0-.3-.74,3.288,3.288,0,0,0-.65-.75,4.255,4.255,0,0,0-1.1-.67,11.469,11.469,0,0,0-4.48-.72,15.5,15.5,0,0,0-2.47.18,8.345,8.345,0,0,0-1.95.54,4.125,4.125,0,0,0-1.15.68,3.359,3.359,0,0,0-.66.76,2.289,2.289,0,0,0-.3.73,3.166,3.166,0,0,0-.07.61,2.7,2.7,0,0,0,.62,1.72,4.064,4.064,0,0,0,1.48,1.06A11.432,11.432,0,0,0,21.04,12.44Zm0-5.02a14.284,14.284,0,0,1,2.11.14,6.274,6.274,0,0,1,1.57.42,3.251,3.251,0,0,1,.53.3,1.211,1.211,0,0,1,.28.27.515.515,0,0,1,.1.22,1.4,1.4,0,0,1,.01.15q0,.06-.01.16a.513.513,0,0,1-.1.23,1.377,1.377,0,0,1-.28.28,2.174,2.174,0,0,1-.55.29,9.532,9.532,0,0,1-3.66.56,9.665,9.665,0,0,1-3.7-.56,2.03,2.03,0,0,1-.52-.29,1.478,1.478,0,0,1-.27-.28.511.511,0,0,1-.1-.23q-.01-.1-.01-.16,0-.52.96-.94A9.652,9.652,0,0,1,21.04,7.42Zm-7.36,5.96h14.7a.159.159,0,0,1,.18.18v1.56a.159.159,0,0,1-.18.18H13.68q-.16,0-.16-.18V13.56Q13.52,13.38,13.68,13.38Zm2.88,7.08H27.38a.159.159,0,0,1,.18.18V22.2a.159.159,0,0,1-.18.18H15.9a1.3,1.3,0,0,1-.97-.4,1.35,1.35,0,0,1-.39-.98V16.54q0-.18.16-.18h1.68a.159.159,0,0,1,.18.18Z" transform="translate(68 21)"/></g><g class="d" transform="matrix(1, 0, 0, 1, -49, 10)"><path class="a" d="M27.935-26.973H24.827a.262.262,0,0,0-.3.3v10.915h-7.7q-.333,0-.333.3v2.923q0,.3.333.3h7.7V4.07q0,.333.3.333h3.108a.294.294,0,0,0,.333-.333V-26.677Q28.268-26.973,27.935-26.973ZM16.724-5.772q-.7-1.073-1.443-2.442a23.32,23.32,0,0,1-1.332-2.96,23.226,23.226,0,0,1-.962-3.367,17.914,17.914,0,0,1-.37-3.663v-7.955q0-.333-.3-.333H9.25a.294.294,0,0,0-.333.333V-18.2a17.914,17.914,0,0,1-.37,3.663,23.222,23.222,0,0,1-.962,3.367,23.32,23.32,0,0,1-1.332,2.96Q5.513-6.845,4.81-5.772A25.38,25.38,0,0,1,2.405-2.535Q1.258-1.258.814-.814a.277.277,0,0,0,0,.444L1.85.777l1.036,1.11q.222.259.481,0,.481-.481,1.758-1.906A32.69,32.69,0,0,0,7.881-3.663q.851-1.369,1.591-2.72a24.3,24.3,0,0,0,1.3-2.756,24.3,24.3,0,0,0,1.3,2.756q.74,1.351,1.628,2.72A30.05,30.05,0,0,0,16.41-.019Q17.686,1.406,18.2,1.887q.222.3.444,0L20.72-.37a.277.277,0,0,0,0-.444q-.444-.444-1.591-1.721A25.38,25.38,0,0,1,16.724-5.772ZM40-9.591a19.466,19.466,0,0,0,2.829-.184,12.441,12.441,0,0,0,2.185-.506,4.764,4.764,0,0,0,1.7-1.058,2.506,2.506,0,0,0,.759-1.84,3.226,3.226,0,0,0-.081-.656,2.307,2.307,0,0,0-.333-.771,3.45,3.45,0,0,0-.736-.782,4.577,4.577,0,0,0-1.288-.69A14.9,14.9,0,0,0,40-16.767a20.424,20.424,0,0,0-2.772.172,10.643,10.643,0,0,0-2.2.517,4.943,4.943,0,0,0-1.725,1.035,2.818,2.818,0,0,0-.6.863,2.462,2.462,0,0,0-.207,1,3.226,3.226,0,0,0,.08.655,2.2,2.2,0,0,0,.345.771,3.5,3.5,0,0,0,.748.771,4.782,4.782,0,0,0,1.288.679A14.575,14.575,0,0,0,40-9.591Zm0-4.876a15.641,15.641,0,0,1,2.7.184,10.017,10.017,0,0,1,1.507.368,2.444,2.444,0,0,1,.667.322q.3.207.3.414t-.311.4a4.052,4.052,0,0,1-.655.334,9.817,9.817,0,0,1-1.794.4A17.416,17.416,0,0,1,40-11.891a15.814,15.814,0,0,1-2.726-.184,9.971,9.971,0,0,1-1.507-.368,1.35,1.35,0,0,1-.253-.1q-.161-.08-.322-.172a1.3,1.3,0,0,1-.276-.207.352.352,0,0,1-.115-.253q0-.138.253-.345a2.624,2.624,0,0,1,.782-.391,8.171,8.171,0,0,1,1.794-.414A18.435,18.435,0,0,1,40-14.467Zm8.441,5.52a.183.183,0,0,1,.207.207v1.794a.183.183,0,0,1-.207.207H41.038v.9h4.876a1.422,1.422,0,0,1,1.092.46,1.569,1.569,0,0,1,.425,1.1V-.713a.163.163,0,0,1-.184.184h-12.4v1.2h12.4q.184,0,.184.207V2.53a.163.163,0,0,1-.184.184H34.069a1.525,1.525,0,0,1-1.1-.449,1.5,1.5,0,0,1-.46-1.116V-2.392q0-.184.207-.184H45.155v-1.2H32.712a.183.183,0,0,1-.207-.207V-5.635a.183.183,0,0,1,.207-.207h6v-.9H31.539q-.184,0-.184-.207V-8.74q0-.207.184-.207Zm29.222-5.631H50.471q-.3,0-.3.333v2.886q0,.333.3.333H62.015v1.665H52.358a.294.294,0,0,0-.333.333v2.664a.294.294,0,0,0,.333.333H72.375v1.924H52.358q-.333,0-.333.3v5.7a2.4,2.4,0,0,0,.74,1.795,2.454,2.454,0,0,0,1.776.721H75.816a.262.262,0,0,0,.3-.3V1.443q0-.333-.3-.333H55.8V-.814H75.816a.262.262,0,0,0,.3-.3V-6.845a2.454,2.454,0,0,0-.721-1.776,2.4,2.4,0,0,0-1.794-.74H65.752v-1.665H77.666A.294.294,0,0,0,78-11.359v-2.886A.294.294,0,0,0,77.666-14.578ZM54.541-16.243H73.6a2.4,2.4,0,0,0,1.794-.74,2.453,2.453,0,0,0,.721-1.776v-5.7a2.436,2.436,0,0,0-.721-1.795,2.436,2.436,0,0,0-1.794-.722H54.541a2.454,2.454,0,0,0-1.776.722,2.4,2.4,0,0,0-.74,1.795v5.7a2.422,2.422,0,0,0,.74,1.776A2.422,2.422,0,0,0,54.541-16.243ZM55.8-19.8v-3.663H72.375V-19.8Zm32.946,4.043h-7.9a.175.175,0,0,0-.2.2v1.848q0,.176.2.176H88q-.066.682-.242,1.694a20.583,20.583,0,0,1-.517,2.189,18.738,18.738,0,0,1-.9,2.431,14.184,14.184,0,0,1-1.408,2.442,13.266,13.266,0,0,1-2.013,2.222,11.182,11.182,0,0,1-2.728,1.76q-.176.044-.088.242l.748,1.672q.066.2.242.11a13.053,13.053,0,0,0,3.256-2.09A15.738,15.738,0,0,0,86.732-3.5a15.225,15.225,0,0,0,1.639-2.926A24.815,24.815,0,0,0,89.4-9.361a22.285,22.285,0,0,0,.583-2.662q.187-1.243.253-2.123a1.458,1.458,0,0,0-.4-1.122A1.425,1.425,0,0,0,88.745-15.752Zm8.91,7.26H95.477v-7.37a.156.156,0,0,0-.176-.176H93.453q-.2,0-.2.176V2.42a.175.175,0,0,0,.2.2H95.3q.176,0,.176-.2v-8.8h2.178a.175.175,0,0,0,.2-.2V-8.294A.175.175,0,0,0,97.655-8.492Z" transform="translate(99 35)"/></g></g><g transform="translate(-67.731 -167.967)"><g class="c" transform="matrix(1, 0, 0, 1, 125.73, 179.97)"><path class="b" d="M9.631,40V36.116H37.369V40ZM3.852,32.233V28.349h39.3v3.883ZM1.926,24.466V20.582H45.074v3.884ZM0,16.7V12.815H12.328V3.883H16.18v8.932H31.012V3.883h3.852v8.932H47V16.7ZM16.18,3.883V0H31.012V3.883Z" transform="translate(9 6)"/></g></g></g></svg>