<svg xmlns="http://www.w3.org/2000/svg" xmlns:xlink="http://www.w3.org/1999/xlink" width="328.779" height="256.721" viewBox="0 0 328.779 256.721"><defs><style>.a{opacity:0.4;}.b,.c{fill:#fff;}.b{stroke:rgba(0,0,0,0);stroke-miterlimit:10;}.d{fill:#070707;}.e{fill:#0c0c0c;}.f{filter:url(#g);}.g{filter:url(#e);}.h{filter:url(#c);}.i{filter:url(#a);}</style><filter id="a" x="0" y="0" width="328.779" height="256.721" filterUnits="userSpaceOnUse"><feOffset dy="3" input="SourceAlpha"/><feGaussianBlur stdDeviation="3" result="b"/><feFlood flood-opacity="0.161"/><feComposite operator="in" in2="b"/><feComposite in="SourceGraphic"/></filter><filter id="c" x="48.221" y="168.376" width="60.369" height="71.592" filterUnits="userSpaceOnUse"><feOffset dy="3" input="SourceAlpha"/><feGaussianBlur stdDeviation="3" result="d"/><feFlood flood-opacity="0.161"/><feComposite operator="in" in2="d"/><feComposite in="SourceGraphic"/></filter><filter id="e" x="93.536" y="170.88" width="157.618" height="62.944" filterUnits="userSpaceOnUse"><feOffset dy="3" input="SourceAlpha"/><feGaussianBlur stdDeviation="3" result="f"/><feFlood flood-opacity="0.161"/><feComposite operator="in" in2="f"/><feComposite in="SourceGraphic"/></filter><filter id="g" x="90.529" y="29.517" width="148" height="129" filterUnits="userSpaceOnUse"><feOffset dy="3" input="SourceAlpha"/><feGaussianBlur stdDeviation="3" result="h"/><feFlood flood-opacity="0.122"/><feComposite operator="in" in2="h"/><feComposite in="SourceGraphic"/></filter></defs><g transform="translate(-15.471 -174.483)"><g class="a" transform="translate(-263 -154.25)"><g class="i" transform="matrix(1, 0, 0, 1, 278.47, 328.73)"><path class="b" d="M819.217,391.675l-.054-3.37-.32-2.675-.7-1.765-1.39-2.192-.642-.7.053-1.712-2.461-2.46-.855-.054-.7-1.23-1.07-1.444-.749-.91-.481-.32-.321-2.675-.374-.749.535-.909,1.23-.16.16-.642-1.872-.161-2.192-2.032.053-.8.536-.321.749.053.106-.642-5.776-7.755-1.551-2.781v-1.23l-1.337-2.461-.214-2.888-.427-.321.32-.642,1.445.161.217-.04-.049.482,4.084.409,4.841,4.011,4.677,3.321,4.254-.733,1.359.389.458-.871v0l4.593-1.621,1.139.57.141,2.12,2.258,1.27v1.662l-2.849,1.5,1.068,3.206,1.994,2.3,1.438.959-.239,1.434.563,2.255-.637,2.551L832.8,372.9l3.578-.551,3.2,4.392,1.455,1.593.049,1.167-.577.408-1.658,1.712L837.67,382.8l-1.07,2.246-1.5,2.407-.589.374-2.354.107-1.658.428-.856,1.337-.588,1.551-.107.7Zm105.688-.589-1.712-1.819-2.246-.588-1.711-.428-.374-2.192,1.283-2.086.963-1.337-.214-.909-.963-.428-.214-1.336.963-.589-.267-1.016-1.819-2.461-.32-1.23,1.765-1.6-.642-.8-.374-1.391-1.123-1.337.427-2.353.321-.856-1.872-1.444-.856-.107-2.193,3.53-.374,1.819-3.583,2.781-1.445.642-.963.054-.749-.91-.962.321.053,1.07-.909.856-5.081-2.942-2.354-3.424-1.551-3.583-.374-1.337-4.44-.16-.214.695.91,1.23.107,1.016-1.337,1.6-1.659.214-3.476,2.888-.517.364v-1.671l.286-3.152-.157-3.627-2.981-2.235-1.31-2.489-.777-4.812.229-3.208,0-3.935.68-2.04.319-4.616-.129-3.344,1.589-.868-.2-2.245-2.343-2.03-1.609-1.355,1.34-1.629,1.859.12,2.907.3,2.7-.795,4.291-4.291,2.864-1,2.174-2.33.869-1.86h1.361l1.314-1.971L902,314.092l1.824-1.14,1.595,1.169,1.088,4.9,2.16,5.635,2.139,6.133,3.432,7.87,2.129,5.393,1.276,4.307,3.5-.167,2.261-.581,2.122,6.367,2.2,3.073,3.888,4.64,2.655.469,3.393.009,4.857-1.159,4.3-1.626,2.643-2.056.8-.795,2.1.526,2.488-.779.2-.074-.239,3.1,2.3,1.382.965,2.2,1.674,1.674,1,3.871,1.492,1.328,1.381.69,0,.039-.107,1.712-.642,1.069-2.14,2.033-.642.16v1.016l-1.23,1.5-.16,3.744-.856,1.391-1.872.107-1.872,2.888-2.139.214-1.5-.963-3.9.107.107,2.032,1.658,1.123-.374.856-2.139,1.979-17.651.16Zm-76.271-.642-.749-.856.107-2.728-2.353-2.407-2.888-2.621-.328-.987-.127-3.035-1.7-1.859-3.629-4.992-3.839.59-1.429-1.021.5-2.013-.578-2.309.332-1.989-1.984-1.324-1.714-1.977-.643-1.929,2.57-1.354v-3.187l-2.307-1.3-.144-2.16-2.284-1.142-3.8,1.342,1.422-2.7.094.277,3.911-1.336,3.236-1.324,2.236-1.957,3.277-.683,3.846-.923,1.24-2.323.786-.865,1.112,1.89,3.25.976,2.824-.595,2.325-.145,2.742-.96,5.31,1.537H862.7v-1.575l1.339-.861.751.525-.249,1.744,1.336,4.595.471,1.293-.809,1.457,6.4,6.248,4.423-.305,2.418-.344.629,3.9,1.543,2.93,2.725,2.044.128,2.935-.282,3.094,0,2.457-1.3.168-1.6.214-.054,1.5-1.069,1.336-2.032,1.872L876.126,379l-.428,1.444-1.069.535-2.728.374-3.048.909-.8.856-.16,1.765-.535,1.23-.428.8-2.514.106-1.07,1.123-1.551.214h-2.942l-1.016-.482-1.23.749-2.353.642-.214.589-1.552-.053-1.123.32-.695.856ZM978.658,370.6l-2.353-2.3-2.46-.8-3.37-.107-3.209.16h-1.552l-1.979,1.391-.008.125-.752-.376-1.074-.955-.994-3.831-1.75-1.75-1.032-2.358-1.975-1.185.332-4.316-2.05.77-2.11.66-2.46-.616-1.227,1.228-2.46,1.912-4.009,1.521-4.594,1.113h-3.147l-2.139-.377-3.542-4.224-2.069-2.9-2.442-7.325-3.227.849-2.425.116-1-3.369-2.166-5.494-3.414-7.823-2.138-6.129-2.122-5.518-1.183-5.324-1.655-1.214,1.556-1.972,3.106-2.965,1.8-2.074,2.248-1,3.9.807,3.938,1.265,4.707,1.712,5.6,1.127,2.856,2.992,4.495,3.061,1.82,1.4,1.307,1.3-.249,1.5,1.014,5.505.589,4.126,2.053,3.316,3.54,1.076,5.536,1.419,10.738,3.25,5.792,4.137,3.5,6.013,4.313,6.329,2.549,3.539,2.758,4.793,1.089.816-.01.282-2.354,2.139-1.6.481-.7,2.3-.482,1.016-.695.749Zm8.825-8.665-1.123-1.176-.856.32v.981l-.151-.113-2.644-4.593-2.593-3.606-4.266-6.258-3.623-6.232-6.189-4.42-10.967-3.319-5.535-1.418-3.049-.929L944.83,328.5l-.555-3.886-.978-5.31.186-1.121,3.25-.361L951,318.958l3.818-.294,5.257-1.447,3.2-1.66,2.066-1.929,2.341-.438,1.939-2.535,1.363-.909,1.338-3.42,4.11-6.944,1.3-3.014,3.822,2.166.935,1.517-.377,2.764-2.594,3.89v2.881l3.646,1.743,6.3,2.294,6.605,2.811,3.1,2.785-.821.249.267,1.391-1.176.856-.91,3.1.7,1.337.32.963.107,1.123,3.156,1.5,2.46-.749.749-1.176.7-.856,2.353,1.979.589,1.336.909.374.482-.8.8-.107.963,1.926.963.695.427,1.712-.535.482-.107,1.711-.428.428-.053,3.53-4.225,3.637-.16,1.337-1.23,1.283-1.391.267-.214,1.337-.8,1.6-.91,1.712-.535,1.123-5.349,4.011-1.551.053-3.8-2.085-1.391.909.107,2.353,1.765,1.444,1.979.374,1.123,1.337-.267.535-2.675.589-1.229.16Zm-228.706-3.53-1.123-1.07-.8-.588.321-1.017.535.054.374-1.6.749-.963,1.659-.32.267-1.123-.161-2.354-.32-1.872.16-.642,2.086-1.177.856-.695-.321-1.284-1.391-.855-1.23-.374-.482.374-1.069.267-.749-.482-1.552-1.391.107-1.23L756,339.044l-.535-1.284.214-1.391.589-1.069,1.711.053.91-.535,1.016-.214.374-1.07.856-1.016,1.23-1.229.267-1.391.213-2.353,1.393-.723,3.178.254,1.05.191.121,1.572,1.993,2.3,1.807,1.809,2.139-1.247,1.946-1.634,1.147-1.414,1.455-.795,1.328-1.172,2.093.279,1.543-1.08,1.6-.456,1.416.991,1.569-.392,1.764,2.5,2.281-1.037-.48,1.438,1.084,1.949,1.619-.359,2.182.436,1.978-.72,1.081-2.161,5.892-7.154,3.559,1.962,2.887,1.375,2.18,2.308.13,2.727v4.316l.148,2.513,1.464,4.245L818,344.458l2.472,2.936,1.482.455-2.294,4.36-.638-.183-4.018.693-4.185-2.97-5.124-4.245-3.543-.355.057-.6-.535-.16-.267.428h-.7l-.642-.267-.053-1.765-2.782-1.712-.909-.267-2.086,1.551-1.6.749-1.123,1.552-1.658,1.978-.535.8-1.391.16-.749.535v1.016l-2.193,1.872-3.048-.321-.589,1.659.107,2.3-1.07.909.214.8.963.374-.268,1.123-2.246-.107-1.818-2.086-1.658-.214-1.123.481-.91-.107-.267.535-1.391.213-.642-1.016-1.177-.589-.535-.213L767.549,356l-.588.642h-1.284l-.749-.91-1.016.161-.214.695h-.856l-.535-.909-.749.267-.589,1.23-.106.589-.963.8Zm108.36-9.4.617-1.111-.658-1.8-1.245-4.288.321-2.25-2.1-1.471-2.654,1.705v.993h-1.976l-5.53-1.6-2.963,1.037-2.193.138-2.642.549-2.454-.736-1.741-2.959-2.013,2.214-1.1,2.014-3.266.784-3.588.748L829.625,345l-3,1.229-3.056,1.042,2.518-3.651,3.577-5.5,5.611-1.582,1.409-2.974,1.32-5.089,1.267-4.365,1.17-2.34,2.5.625,3.306-.751,3.851-1,4.117-1.418,1.021-.114,12.353,6.317,3.135,1.994,3.068,1.777.94-.671,1.748,1.4,2.7,2.277,1.944,1.684.081.892-1.548.845.157,4.073L879.538,344l-.719,2.159v4.075l-.239,3.331-2.326.332-3.826.264Zm-45.929-2.723-2.092-2.485-1.521-3.87-1.4-4.053-.136-2.3v-4.31l-.154-3.232-2.67-2.828-3.07-1.461-3.847-2.122.344-2.977-1.031-2.357-.247-1.855.837-1.675,1.273-.89,2.492-1.467,2.187-2.5.483-3.062-1.915-5.009-1.879-3.767-2.654-3.126-.04.033-1.432-2.733-.608-1.584.459-.046,1.89,2.3,3.215,1.169,4.9,3.639,9,7.177,1.166,2.622,2.093,1.143,2.119-1.362,5.854.8.855.733,2.077,1.136,2.633.292,2.617.786,3.317,3.869,5.016,5.392-2.134.68-3.97.993-5.99,1.261.186,1.675-1.342,2.683-1.331,4.549-1.268,4.933-1.132,2.39-5.514,1.555-3.83,5.893-2.585,3.749Zm-49.677-16-1.7-1.962-.164-2.137-2.057-.374-3.63-.293-.039.491-.3-.119-.267-1.123.374-1.176.749.053-.214-1.6-.32-.588-.643-.268v-1.444l.589-.589.642-1.23.267-2.514.268-2.246.535-1.337,1.016-.909-.053-2.407-.91-.428-1.016-.481-.535-.7-.214-1.016-1.6-2.139-.048-2.341.045.033,2.567-3.423,1.32-2.2L767.2,293.1l.156-.188.259.3.34,1.476-.588,1.174,2.355,1.449,1.191.6.358,1.91v2.382l1.343,2.537,1.272,3.109,1.829,3.169,18.046-2.858.336-3.858-.4-2.557.827-1.379V297.42l-1.816-2.516.374-2.117.688-2.2.526-1.142,2.659,1.734,3.064,1.687,3.616-.3,1.947-.387,2.168,2.529,1.805,3.61,1.781,4.659-.373,2.358-1.806,2.065-2.336,1.373-1.6,1.12-1.159,2.318.323,2.425.966,2.206-.386,3.348-3.3,3.992-2.567,3.138-.961,1.887-1.16.422-2.1-.419-.948.211-.344-.618,1.232-3.7-3.994,1.815-1.659-2.35-1.854.464-1.437-1.005-2.394.684-1.31.916-2.185-.291-1.591,1.431-1.615.881-1.183,1.479-1.763,1.493-1.236.721Zm107.332-10.61-4.176-1.322L870.7,316.71l-3.558-1.326-.929-.664-1.8-.907-1.256-.518-1.8-.556-1.043-.812-.922-2.57-.591-2.586-2.613-3.612-.975-.376,1.993-.1,1.291-.887,3.106-3.377,1.809-2.482.817-2.245,1.067-.734,2-2.884-.26-1.388-.283-1.764-.25-1.939.949-1.175L869,284.8l1.042,1.041,1.262,2,1.457-1.561,1.836-.634,1.825-.121,1.016.726,2.885-.37,4.788,1.618,1.435,1.373,1.036,2.629h2.234l2.16-1.118,2.31-.749,1.616.97.2,1.792,1.184,1.5.94.887.067,2.191.86,2.323,2.12.644,1.8-.485,1.249.6-1.5,2.132-1.8,3.311-3.032,1.549-1.669,1.277-2.146,2.36-.882,1.9-2.345,1.342-4.344,2.776-3.187,1.984-2.175,1.12Zm117.9-4.334-6.835-2.906-6.246-2.272-2.887-1.381v-1.683l2.541-3.812.48-3.512-1.348-2.191-4.233-2.4,4.347-10.1,4.325-7.393,5.475-3.559,1.968-.394,3.479-.139,4.027.3,1.749-1.112,3.012-2.434,3.216-1.817,3.419-1.635,1.76-2.641,2.568-2.2.495.184.374.427,1.07-.642,1.283-.695,1.123.8-.589,1.016,1.07,2.942,1.658,2.941,1.016,2.193.536,1.391-.428,1.819.214,1.6.856,1.284.695,1.765v1.979l.054,2.674.053,1.177,2.193,1.337.427,1.391-.642.643-1.016.267-.7,1.016.107,1.283.428,1.391v.7l-1.712-1.016-1.123-.642-2.354.427-.374.749-.267.8-2.728-.375-.749.268-2.835.427-1.444.428-.267-.8-.963.054-3.1,3.744-1.07,1.872-.427.481.16,1.07.589.267-.321,1.016-.588.428-.374.427.213.909-.427,1.124-1.07.427-.374.963-.053,1.5-3.209,3.208-.749,4.333-2.139,1.6v1.709Zm-221.7-8.007-1.267-3.1-1.236-2.34v-2.123l-.5-2.714-1.687-.843-1.329-.818.268-.536-.515-2.233-1.453-1.695-1.271,1.525-1.015,2.757-1.236,2.06-1.655,2.206-.076-1.028-6.526.107-1.391-.535-1.016-.535-.535-.962-.267-.428-1.5.054-1.229.8-.963.7-1.123,1.069-1.016,1.177-.161.588-3.69,2.568-.589-.107-.482-1.979-.695-.8.213-1.177.643-.374-.161-.642-.856-.267-.749-.267-.213-1.6-2.568-1.872-5.723-.214-3.155-2.62-2.675.053L720,285.13l.107-.749,1.337-1.016,1.336-.749,1.391-.16,1.872.214.643-.589,1.283-2.246.8-.8.963.695.374.535-.16-2.514-.856-2.246-.589-.8.16-.963.7-.642.963.482.8.107,1.123-1.123.963-.161-.374-.642-.7-.695.589-1.177.589-.053.053-1.23,2.246-1.23,1.5-1.176,1.123-.856,1.07-1.016.642-.856.7.427.106.642.268.589.106-2.246,1.07-1.712.7-1.123.106-.909,1.123-1.6,1.123-1.444.963-.428.214-1.818-.054-1.5-.535-1.123L745.3,250.1l-1.177-2.085.161-3.262.588-.589.643-.428.32-.535.019-.245,2.495,1.928,3.11,4.238,4.422,5.278,4.925,4.212,7.033,5.026,7.9,3.462,3.953,2.823,5.691,3.841,7.976,5.7,5.673,4.253,3.87,3.317.655,1.7,1.2,2.3-1.263.253-3.194.266-2.661-1.464-3.883-2.533-1.167,2.528-.742,2.361-.495,2.771,1.892,2.62v2.182l-.884,1.474.452,2.862-.235,2.7-16.186,2.562Zm168.819-.665-4.855-2.005-2.064-1.053,1.626-3.814,5.4-11.495,3.049-6.365.041-.086.3-1.928-.922-.508.572-1.144,2.579-4.837,1.347-2.788,1.425.258,3.793.433,4.274-.162,4.483-.833,2.312-1.354,1.138-.734.172.034.963.856.267,1.337-.374,1.712-.482,2.46L968.335,277l-.374,1.819.054.909,1.391.963.963.963.695.588,1.979-1.658,1.176-.8,1.123-.8,1.337.642.767,1.094.265.134-1.084,1.624-1.678,4.8-.689,2.589-1.071,1.947L971.7,292.9l-2.773,3.352-3.169,3.539-3.668,2.8-2.889,4.148-3.726,1.441-3.1.1-1.943.05Zm-9.7-4.574-2.906-.726-6.092-2.126-5.327-1.988-5.09-2.109-2.2-.151-4.709.076-1.751,1.751-1.12,2.146-1.786-.874-1.906.513-1.159-.353-.566-1.529-.076-2.516-.51-.476,2.6-2.48,1.427-1.706,1.7-1.257.761-1.522.335-2.815,1.6-1.088,1.976-.083.821-2.543,1.713-2.426.516-1.651-1.682-1.376-.176-4.086,2.29,1.308,2.326.367,2.52-1.03,2.325-1.366,2.182-.3h2.363l4.558,2.432,2.345,2.877,4.486,2.626,5.65,2.224,3.144.083-.013.025,1.217.67-.131.853-3.01,6.283-5.412,11.521L935.825,303Zm-81.788-.4-.443-.171-.01.027-2.159-3.81-1.351-1.7-2.111-.352-1.183.4-2.451-1.226-1.921-1.153-3.11.076-2.552.392-2.589.66-2.324-.775-4.457-3.133-3.495-2.781-3.637-2.357-2.952-2.812-3.537-2.818-3.8-2.512-3.978-2.912-2.95-2.3-4.271-2.989-3.858-2.787-.478-.334,2.266-1.351,3.477-1.016,2.46-.963,1.284-.589.427-1.5.321-.267v-1.444l-.7-.374.107-1.229,1.979-1.445.32-2.139,1.091-.951,4.979,4.841,4.364,3.791,5.938,4.878-.094.112,3.78,3.137,6.513,3.415.664,1.107,6.828,2.543,1.223.917-.606,1.32-.375,2.346,2.844,1.337,4.19,2.132,2.029.081,2.965-.868,7.14-.636,2.586-.429,2.425-.285,1.764-.513,1.4.833-1.2,1.49.323,2.5.289,1.8.164.878-1.562,2.25-1.214.834-.895,2.462-1.638,2.251-2.921,3.2-.931.64-2.618.134-1.758.141Zm44.943-9.81-.229-2.058-2.662-1.6-2.917.946-2.026,1.039h-1.048l-.818-2.079-1.846-1.765-5.338-1.8-2.678.344-.98-.7-2.454.164-2.3.793-.539.579-.411-.652-1.23-1.253L868.27,282.8l.032-.041-1.711-1.015.905-1.63,1.93-1.931.107-2.139,1.648-1.648-.049-.444,2.617-1.183h4.419l4.822.643,4.252-.113,2.147-1.017,2.347-1.076,3.1.931,4.087-.441,1.663-.31,3.419.414,3.222.461,2.077-1.261.189,4.4,1.456,1.192-.2.631-1.71,2.423-.606,1.878-1.448.06-2.39,1.622-.378,3.174-.523,1.047-1.516,1.121-1.515,1.788-2.6,2.476Zm-50.943-8.227-3.957-2.013-1.988-.935.2-1.22.964-2.1-2.2-1.65-6.579-2.449-.619-1.032-6.661-3.476-3.161-2.624,6.926-7.405.5-1.348,1.138.628.4,2.667,5.189-.716.492-1.887.632-.632.234-.77.193.193,2.921-.521-.279-2.417V252.3l2.057-2.314,3.308-2.026,1.519-.264,1.872-.671,1.048-1.524-.257-1.539-.455-1.283.687-.638.673-.9h1.795l.961-1.4,1.141-1.521,1.051-.234.752-.261,2.045,3.153-.845,1.22.28,4.34,2.205-.648,1.868,2.038-.262,1.485-.512,2.049-.6,1.2.49,2.821,1.084,1.445-1.216,1.589-.123,2.216.346,1.466-2.778,1.778,1.7,3.4,4.369,4.033,3.449,1,1.311.41.133,1.2-1.561,1.561-.106,2.14-1.707,1.706-.976,1.755-.346-.205-2.142.635-2.4.283-2.543.424-7.178.64-2.946.85Zm95.489-5.1-5.3-2.08-4.244-2.483-2.361-2.9-5.07-2.7h-2.728l-2.569.345-2.425,1.432-2.144.878-1.739-.275-2.748-1.57v-5.173l2.71-1.806,3.475-3.459,2.968-3.34.517-2.583,1.834-.282,1.084-4.412,1.046-.318,1.476.737H927.6l2.219-3.7,1.7-.731,3.275-.2,1.631.091,2.288-3.788,1.9.066,4.056-2.681.539,5.383-1.863,3.193.223,4.842.622,3.594,1.772,2.493,2.727,5.087.755,2.819-.211,2.893.274,2.459.13.024-1.181,2.444-2.575,4.829-.485.971Zm-70.995-6.8-2.125-.663-3.171-.921-3.974-3.668-1.08-2.16,2.571-1.646-.511-2.171.091-1.635,1.566-2.047-1.483-1.977-.365-2.1.441-.881.583-2.271.385-2.174-2.838-3.1-1.433.422-.148-2.292,1.081-1.561-2.445-3.77.315-2.137.229-2.448-.8-1.82-.068-2.725-.477-3.507.833-1.611,1.563-.3,2.528-.553,1.449-2.071h.735l3.066-.527,1.833-.994,1.263-.771,2.622-1.342.422,2.749,1.922,1.7,1.33,2.148,1.552,2.69.4,2,.23,2.4,2.261,2.877-.434,1.39-.149,2.446.593.692-.183.733.757,1.946-.121.671-5.892,2.736-1.511,3.022,3.55,2.789,3.641.416,1.579,2.212L887.615,253l3.848-.77,1.475-.14-.082,1.63,2.386,3.181,1.406,1.319.31,2.268,1.561,2.412,2.532-1.206,1.052.316,1.141-.476,1.282,1.042.721,1.855,1.189,1.529,1.939-1.422h.9v4.989l-2.313,1.4-2.781-.4-3.628-.439-1.785.335-3.8.411-3.316-1-2.794,1.281-1.911.905-3.878.1L878.3,271.5l-4.823-.005-2.49,1.125Zm81.678-2.123-1.884-.342-.155-1.391.218-2.992-.83-3.1-2.836-5.325-1.67-2.357-.556-3.186-.2-4.423,1.882-3.226-.815-8.144.021-.086-.771-2.314-.628-1.307,2.656-1.8,2.582-1.23c.656-.313,1.314-.627,1.805-.864.3-.142.531-.256.713-.357.16-.014.345-.042.554-.076.383-.059.892-.14,1.4-.222,1.017-.165,2.034-.332,2.039-.333l1.186-.2,1.348,1.617,1.236,1.817,2.869-1.761,2.019-1.21,2.94-.315,2.92-1.128,1.045.284,2.461-.267s1.658.481,1.818.535,1.926.749,1.926.749l1.336,1.229.107.91.107,1.6.054,1.925.16,1.5-.589.8.107.7.749,1.23.267,1.07-.107,2.192L979.781,241l-1.016,1.176-.856,1.176-.374.8.7,1.016.642,1.391.214,1.444-.161,1.016-.749.695-.749.428-1.391.856-.427,1.069L974.754,254l-.428,1.711-.481,1.979-.536,1.659-1.444.749-1.017.749-1.122.588-.428.482-.107,1.07-.374.909-1.123,1.658-.267.535.033,1.223-.893.576-2.1,1.228-4.123.772-4.129.158ZM815.983,260.7l-4.324-3.755-4.877-4.744.881-.77,1.283-1.712.749-.535,1.07.909.374.643-1.016,1.016-.054.909.482,1.016.535.481,1.017-.107h.8l.589.749.642-.16.8-.963,1.23.107.428.374,1.336-.16,1.445-.428-.214-.855-.053-2.193.749-.963.962-.589.161-1.069-.589-.856-.16-.749.267-.642v-.7l-.642-1.551.107-1.39.8-.7.427-.428-.053-.642-.427-.749-.321-.7.16-.7.482-.32.16-.8-.267-1.6-.535-.856-.428-.8.053-.8.482-.481.374-1.925.16-1.123,1.123-1.177.7-1.016.8-1.016,1.016-.7-.267-.589-.374-.695.054-.856.213-.482.963-.856.321-.909.106-1.819-1.176-1.5-.535-.8.213-1.176,1.07-1.391.642-.749.856-.535.214-.909-.214-.642-.16-.642.16-1.445.321-.374-.161-.7-.588-1.283-.268-.589V205.6l.054-.963-.909-1.176-.589-.7.16-.856.267-.589,1.016.161s4.387,4.386,7.649,2.032l2.246-.374,6.258-4.279a3.645,3.645,0,0,0,4.279-1.123l1.337-2.782,5.937-3.477s2.3,3.477,5.081,3.638l2.461,2.085,2.407,3.637L865,201.853l.32,3.1,2.728,1.766,2.3,3,.588,3.048,1.943,1.982.039.251-3.022,1.546-1.3.792-1.619.877-2.695.472h-1.348l-1.546,2.208-2.021.443-2.159.416-1.307,2.525.522,3.8.074,2.944.769,1.746-.194,2.082-.229,1.542-1.024.359-1.479.328L852.9,239l-.593.863h-1.77l-.94,1.283-1.265,1.175.695,1.913.162.97-.52.758-1.323.481-1.706.3-3.68,2.253-2.507,2.822v2.169l.149,1.329-1.073.191-1.233-1.233-.764,2.511-.652.652-.364,1.393-3.083.426-.31-2.04-3-1.654-.927,2.5-6.7,7.169Zm90.391,3.088-.777-2-2.141-1.74-1.426.594-1.087-.326-1.961.933-.793-1.225-.332-2.439-1.625-1.508-2.072-2.764.132-2.649-2.986.284-3.673.731-3.8-.878-1.629-2.281-3.847-.439-2.441-1.918.842-1.685,6.089-2.827.306-1.682-.741-1.9.245-.979-.69-.805.089-1.7.611-1.957-2.445-3.113-.2-2.058-.458-2.309-1.668-2.889-1.441-2.327-1.714-1.514-.418-2.708.3.094.909-1.391,4.5-2.473,3.006,2.8,2.149,1.81,1.715.4.895,1.392,1.6,1.066,1.533,2.517,3.3,1.364,3.065.751-.265,2.028.956,3.109,2.516,1.943,2.743,1.327,1.744-.205L909.1,235.4l3.371-1.012,2.017.388-.435,2.755,6.478-3.778.67-1.453,2.788-2.479,2.28-2.5.622-1.868,1.661-1.271.4-.4,3.919,4.334,1.93,1.661,2.173,1.4.8,1.542,2.54-.064,1.3-.283,1.508-.479.625,1.29.643,1.926-.326,1.358L940.252,239l-2.241-.077-2.275,3.772-.937-.052-3.572.223-2.29.982-2.059,3.432h-.911l-1.662-.832-2.235.68-1.055,4.288-1.875.289-.625,3.122L915.8,257.88l-3.307,3.307-3.1,2.067h-1.444l-1.271.931Zm9.58-30.038-3.545-.681-3.047.913-4.011-3.061-1.892.222-2.231-1.066-2.138-1.652-.755-2.453.377-2.893-4.042-.98-2.862-1.184-1.463-2.4-1.611-1.074-1.031-1.6-1.922-.452-1.891-1.591-2.858-2.668,1.137-2.747-.642-1.712-1.444-.8,1.123-2.835-2.3-4.6-.32-2.032-1.123-.7-.054-1.337,1.07-.428,3-2.192,1.5-3.744,4.653-2.621.482-5.188-.642-3.584-.7-1.872L886.5,173.4l.749-.588.963-.374,1.337-1.712.749-.856,1.016-.642,1.176-.267,1.444.374.856-.8,1.229-.267,1.344.192.569,4.551,2.714,1.955.956,3.612,2.086,1.756.86,1.721.149.9-1.531,1.838-.365,2.434.352,1.585-1.184.691-.24,7.34.75.282-.346,1.386,1.311,2.624,2.651.6,2.62.016,2.36,2.874,3.017,1.4,1.643,1.74,1.166,3.179,2.628,3.395,2.621,2.842,1.382,1.382-.025.046.158.086.166.166.014-.067,2.38,1.309,1.863,2.749-.345.344-1.941,1.484-.661,1.984-2.025,2.227-2.963,2.634-.614,1.328-3.791,2.211Zm22.01-3.464-2.354-1.513-1.807-1.55-4.518-4.995-.041.037-2.13-3.145-2.974-1.637.884-3.929,2.247-3.371-.364-1.094,1.331-.8.763-1.637.677-.508,3.4,3.919.328-4.25.435-1.522v-1.431l-1.2-2.173-.3-2.629-.111-3.764-1.825-3.329-.32-4.385-1.884-3.453.914-4.976.95-2.956.56-3.959.112-3.474.106-1.8.088-.662.877-.789.963-.213.963-.535,1.069-.749,1.6-1.016.91-1.176.427-1.017.214-.695,1.23-.267,2.3.481,1.23.267,1.283.107,1.391-.214.91-.481,1.765-.856,1.069-.214,1.337-.32,1.925.214,1.284,1.6.8,1.5.214.75.749,1.391,1.337.588,1.711.374,1.337-.213,1.391.588,1.177.482.427,1.123.214,1.6-.16,1.016-1.07,1.445-.7,1.23-.642.962-.588.963.106,1.23.643.963.374.749.267,1.069.107,1.016.909,1.07.749,1.337V181.8l-.214.962-.427,1.07-.374.856-.374.481.16,2.139.214,1.07-.8,1.069-.588.749-.535.749-.213.589.053,1.5.321.856-.054,1.016,1.016.535.428,1.926-.214.962-.267.749-.321.91-.482.32.963,1.283.909,1.659,1.819.107,1.391-.214,1.23-.214,1.123-.107s1.07.161,1.23.161,2.407.962,2.407.962l2.032,1.445,1.124,1.23.427,1.391.107,1.6.107,1.658v1.658l-.107.91-.321,2.407-.588.749-.536.856-.909.909-1.391.856-.589.909-.32.7-.535,1.069-.053,1.5-.508.677-.583.224-1.417.556-3.05.328-2.266,1.359-1.831,1.124-.565-.831-1.879-2.26-1.911.329c-1.1.181-2.751.449-3.551.572l-.041-.1-1.139.381.019.076c-.945.457-3.188,1.526-4.766,2.277l-2.847,1.923-2.235.71-1.087.248-1.676.042Zm-17.437-16.762-2.489-3.216-1.188-3.24-1.993-2.111-2.974-1.382-2.56-3.117H906.31l-1.986-.451-.828-1.656.509-2.037-.962-.361.187-5.71,1.383-.806-.5-2.266.276-1.844,1.678-2.013-.278-1.669-1.066-2.13-1.978-1.666-.97-3.664-2.633-1.9-.607-4.856-.113.014.279-.577-.482-1.176-.642-1.016-.16-.8.481-1.712.268-1.5.374-1.23.856-1.818,1.123-.963,1.711-.482,1.819-.588,3.477-.749,1.925-.589,1.659.374,1.551.749,1.069,1.444.589,1.391.642,1.765.321,1.069.374,1.07.374.642.8-.214.481-.855,1.926-.214,1.176-.536.749-1.069,1.283-.963.589-.267,1.07.856.695.8.8.428.909-.589.749-.589.589-.16.749,1.391.482,1.23.213,1.177.054,1.337.288.792-.069.514-.112,1.884-.106,3.388-.522,3.762-.946,2.942-1.024,5.546,1.967,3.608.321,4.387,1.812,3.3.1,3.482.339,2.962,1.157,2.105v.923l-.4,1.411-.118,1.375-2.166-2.5-1.891,1.417-.734,1.572-1.878,1.127.491,1.474-2.03,3.047-.734,3.258Z" transform="translate(-710.47 -147.73)"/></g></g><g class="a" transform="translate(-263 -154.25)"><path class="c" d="M650.808,478.086l1.441,2.327,1.668,2.89.458,2.308.2,2.059,2.446,3.113-.611,1.957-.089,1.7.691.806-.245.979.74,1.9-.306,1.682-6.089,2.827-.842,1.685,2.441,1.917,3.847.44,1.629,2.281,3.8.877,3.673-.731,2.986-.284-.133,2.649,2.073,2.763,1.624,1.508.333,2.439.793,1.225,1.961-.934,1.087.326,1.426-.594,2.141,1.74.776,2,.308.4,1.271-.932h1.443l3.1-2.067,3.307-3.307,2.711-3.052.624-3.122,1.875-.289,1.055-4.289,2.234-.68,1.663.831h.911l2.059-3.432,2.29-.981,3.572-.223.936.052,2.276-3.772,2.241.078,3.826-2.529.326-1.358-.642-1.926-.625-1.29-1.508.478-1.3.283-2.54.064-.8-1.541-2.174-1.4-1.929-1.66-3.919-4.335-.4.4-1.662,1.271-.622,1.867-2.279,2.5-2.788,2.478-.67,1.452-6.478,3.779.435-2.755-2.017-.388-3.372,1.012-4.119-3.143-1.745.205-2.743-1.328-2.515-1.943-.957-3.109.265-2.028-3.065-.751-3.3-1.364-1.533-2.518-1.6-1.065-.895-1.392-1.715-.4-2.149-1.81-3.006-2.8-4.5,2.474-.909,1.391-.3-.094.417,2.709Z" transform="translate(-206.347 -77.146)"/><path class="c" d="M664.248,415.12l1.922.452,1.031,1.6,1.611,1.074,1.463,2.4,2.862,1.184,4.042.98-.377,2.893.755,2.453,2.138,1.652,2.231,1.067,1.892-.223,4.011,3.061,3.047-.914,3.546.682-.207,1.31,3.792-2.212.613-1.329,2.963-2.634,2.025-2.228.661-1.984,1.941-1.485.344-.344-1.862-2.749-2.379-1.309-.015.066-.165-.166-.157-.086.025-.046-1.382-1.382L698,414.07l-2.628-3.395L694.2,407.5l-1.643-1.74-3.017-1.4-2.36-2.874-2.62-.016-2.65-.6-1.312-2.624.346-1.386-.75-.281.241-7.341,1.185-.691-.352-1.585.365-2.435,1.531-1.837-.15-.9-.86-1.721-2.086-1.757-.956-3.611-2.715-1.955-.569-4.551L674.488,368l-1.23.267-.856.8-1.444-.374-1.177.267-1.016.642-.749.856-1.337,1.712-.963.374-.749.588.267,1.337.7,1.872.642,3.584-.481,5.188-4.653,2.621-1.5,3.744-3,2.193-1.07.428.053,1.337,1.123.7.321,2.032,2.3,4.6-1.123,2.835,1.444.8.642,1.712-1.137,2.747,2.858,2.668Z" transform="translate(-210.466 -18.737)"/><path class="c" d="M500.016,491.476,505.528,496l6.7-7.168.927-2.5,3,1.654.309,2.04,3.084-.426.364-1.393.652-.652.764-2.51,1.233,1.233,1.073-.191-.149-1.329v-2.169l2.507-2.821,3.68-2.253,1.705-.3,1.323-.481.521-.758-.162-.97-.7-1.913,1.265-1.175.941-1.283h1.77l.593-.863,1.442-1.923,1.478-.329,1.024-.359.228-1.542.194-2.082-.768-1.746-.074-2.943-.522-3.8,1.306-2.525,2.16-.416,2.021-.442,1.546-2.208h1.348l2.694-.472,1.62-.877,1.3-.792,3.022-1.546-.039-.251-1.943-1.982-.588-3.049-2.3-3-2.728-1.765-.321-3.1-1.284-1.016-2.407-3.637-2.46-2.086c-2.781-.16-5.081-3.637-5.081-3.637l-5.937,3.477-1.337,2.781a3.645,3.645,0,0,1-4.279,1.123l-6.258,4.279-2.246.374c-3.263,2.353-7.648-2.032-7.648-2.032l-1.016-.16-.267.588-.16.856.588.7.909,1.177-.053.963v.963l.267.588.588,1.284.161.7-.321.374-.161,1.444.161.642L511,443l-.214.909-.856.535-.642.749-1.07,1.391-.214,1.177.535.8,1.177,1.5-.107,1.819-.321.909-.963.856-.214.481-.053.856.374.7.267.588-1.016.7-.8,1.016-.7,1.016-1.123,1.177-.16,1.123-.374,1.926-.481.481-.053.8.428.8.535.856.267,1.6-.16.8-.481.321-.16.7.321.7.428.749.053.642-.428.428-.8.7-.107,1.391.642,1.551v.7l-.267.642.16.749.588.856-.16,1.07-.963.588-.749.963.054,2.193.214.856-1.444.428-1.337.16-.428-.374-1.23-.107-.8.963-.642.16-.588-.749h-.8l-1.016.107-.535-.481-.481-1.016.054-.909,1.016-1.016-.374-.642-1.07-.909-.749.535-1.284,1.712-.881.769,4.878,4.744Z" transform="translate(-116.033 -49.774)"/><path class="c" d="M462.416,582.539l4.271,2.99,2.95,2.3,3.978,2.912,3.8,2.512,3.537,2.819,2.952,2.811,3.638,2.357,3.494,2.781,4.457,3.132,2.324.775,2.589-.659,2.552-.392,3.11-.076,1.921,1.153,2.45,1.225,1.183-.394,2.111.351,1.352,1.7,2.158,3.809.01-.027.443.171h.013l1.757-.141,2.618-.135.931-.64,2.921-3.2,1.637-2.251.9-2.462,1.214-.835,1.563-2.25-.164-.877-.288-1.8-.323-2.5,1.2-1.491-1.4-.833-1.764.513-2.425.285-2.585.43-7.14.636-2.964.868-2.028-.081-4.19-2.132-2.844-1.338.375-2.346.605-1.321-1.223-.917-6.828-2.543-.664-1.107-6.514-3.415-3.78-3.138.093-.112-5.938-4.878-4.364-3.791-4.979-4.842-1.09.951-.321,2.139-1.979,1.444-.107,1.23.7.374v1.444l-.321.267-.428,1.5-1.284.588-2.46.963-3.477,1.016-2.266,1.351.477.334Z" transform="translate(-97.305 -132.101)"/><path class="c" d="M832.7,502.9l-2.018,1.211-2.87,1.761-1.236-1.818-1.348-1.617-1.186.2c-.005,0-1.022.168-2.039.332-.51.082-1.02.164-1.4.223-.209.033-.394.061-.554.075-.182.1-.418.215-.713.357-.492.237-1.149.551-1.806.865-1.171.559-2.343,1.116-2.582,1.23l-2.656,1.8.628,1.307.771,2.314-.021.086.815,8.144L812.6,522.6l.2,4.423.556,3.186,1.67,2.358,2.836,5.325.831,3.1-.218,2.991.155,1.392,1.884.342,3.653.416,4.129-.157,4.123-.773,2.1-1.227.892-.576-.033-1.223.267-.535,1.123-1.658.374-.909.107-1.07.428-.481,1.123-.588,1.016-.749,1.444-.749.535-1.658.481-1.979.428-1.711.856-1.925.428-1.07,1.391-.856.749-.428.749-.7.161-1.016-.214-1.444-.642-1.391-.7-1.016.374-.8.856-1.177,1.016-1.177.267-1.177.107-2.193-.267-1.07-.749-1.23-.107-.7.588-.8-.16-1.5-.053-1.925-.107-1.6-.107-.909-1.337-1.23s-1.765-.7-1.926-.749-1.818-.535-1.818-.535l-2.46.267-1.045-.285-2.92,1.127Z" transform="translate(-299.953 -95.091)"/><path class="c" d="M704.35,353.292l2.634,1.9.97,3.663,1.979,1.666,1.065,2.13.278,1.669-1.678,2.014-.277,1.844.5,2.267-1.383.807-.187,5.71.962.361-.509,2.037.828,1.655,1.987.452h3.013l2.56,3.117,2.974,1.381,1.993,2.111,1.188,3.24,2.49,3.215L728.3,397.3l.733-3.258,2.031-3.047-.491-1.474,1.878-1.127.734-1.572,1.89-1.418,2.166,2.5.119-1.375.4-1.411v-.922l-1.158-2.105-.339-2.961-.1-3.483-1.812-3.3-.321-4.387-1.968-3.608,1.024-5.546.946-2.942.522-3.762.106-3.389.112-1.883.069-.514-.288-.792-.053-1.337-.214-1.177-.481-1.23-.749-1.391-.588.16-.749.588-.909.588-.8-.428-.7-.8-1.07-.856-.588.267-1.284.963-.749,1.07-1.177.535-1.925.214-.482.856-.8.214-.374-.642-.374-1.07-.321-1.07-.642-1.765-.588-1.391-1.07-1.444-1.551-.749-1.658-.374-1.926.588-3.477.749-1.819.588-1.712.481-1.123.963-.856,1.819-.374,1.23-.267,1.5-.481,1.712.161.8.642,1.016.481,1.177-.279.576.113-.014Z" transform="translate(-237.212)"/><path class="c" d="M771.68,353.272l-.112,3.474-.559,3.959-.95,2.956-.914,4.977,1.884,3.453.321,4.385,1.825,3.329.111,3.764.3,2.628,1.2,2.174V389.8l-.435,1.522-.327,4.25-3.4-3.919-.677.507-.764,1.637-1.331.8.364,1.093-2.248,3.371-.884,3.93,2.975,1.637,2.13,3.145.041-.038,4.517,5,1.808,1.55,2.353,1.513.589,1.133,1.675-.042,1.088-.247,2.235-.711L787.345,414c1.578-.75,3.821-1.819,4.766-2.277l-.019-.076,1.139-.381.04.1c.8-.123,2.45-.392,3.551-.573l1.911-.329,1.879,2.26.565.83,1.832-1.124,2.266-1.36,3.05-.327,1.417-.557.583-.224.507-.676.054-1.5.535-1.07.321-.7.588-.909,1.391-.856.909-.909.535-.856.588-.749.321-2.407.107-.909v-1.658l-.107-1.658-.107-1.6-.428-1.391-1.123-1.23-2.032-1.444s-2.246-.963-2.407-.963-1.23-.16-1.23-.16l-1.123.107-1.23.214-1.391.214-1.819-.107-.909-1.658-.963-1.284.481-.321.321-.909.267-.749.214-.963-.428-1.926-1.016-.535.054-1.016-.321-.856-.054-1.5.214-.588.535-.749.588-.749.8-1.07-.214-1.07-.16-2.139.374-.481.374-.856.428-1.07.214-.963v-1.123l-.749-1.337-.909-1.07-.107-1.016-.267-1.07-.374-.749-.642-.963-.107-1.23.588-.963.642-.963.7-1.23,1.07-1.444.16-1.016-.214-1.6-.428-1.123-1.177-.481-1.391-.588-1.337.214-1.712-.374-1.337-.588-.749-1.391-.214-.749-.8-1.5-1.284-1.6-1.925-.214-1.337.321-1.07.214-1.765.856-.909.481-1.391.214-1.284-.107-1.23-.267-2.3-.481-1.23.267-.214.7-.428,1.016-.909,1.177-1.6,1.016-1.07.749-.963.535-.963.214-.877.789-.088.663Z" transform="translate(-272.947 -4.505)"/><path class="c" d="M823.019,603.758l-4.483.833-4.274.162-3.793-.434-1.425-.258L807.7,606.85l-2.579,4.837-.572,1.145.922.507-.3,1.928-.041.086-3.049,6.365-5.4,11.5-1.627,3.814,2.064,1.053,4.855,2.005,6.555,1.678,1.943-.051,3.1-.1,3.726-1.441,2.889-4.148,3.667-2.8,3.169-3.539,2.773-3.352,1.49-1.093,1.07-1.946.689-2.589,1.677-4.8,1.083-1.625-.264-.133-.766-1.094-1.337-.642-1.123.8-1.177.8-1.979,1.658-.7-.588-.963-.963-1.391-.963-.053-.909.374-1.819.588-2.353.481-2.46.374-1.712-.268-1.337-.963-.856-.172-.034-1.138.734Z" transform="translate(-290.092 -152.422)"/><path class="c" d="M573.067,570.253l.107-2.139,1.561-1.561-.134-1.2-1.311-.41-3.449-1-4.369-4.033-1.7-3.4,2.778-1.778-.345-1.466.123-2.215,1.215-1.589-1.084-1.446-.491-2.82.6-1.2.512-2.049.262-1.484-1.869-2.039-2.2.648-.28-4.34.845-1.221-2.045-3.153-.751.261-1.052.234-1.141,1.522-.961,1.4h-1.8l-.673.9-.686.637.455,1.283.257,1.539-1.048,1.524-1.872.67-1.519.264-3.309,2.026-2.057,2.314v1.644l.279,2.417-2.921.521-.193-.194-.234.77-.632.632-.492,1.887-5.189.716-.4-2.667-1.138-.628-.5,1.347-6.926,7.406,3.161,2.624,6.661,3.475.62,1.033,6.579,2.449,2.2,1.65-.964,2.1-.2,1.22,1.988.936,3.958,2.013,1.538.062,2.946-.849,7.178-.64,2.543-.424,2.4-.283,2.142-.635.346.205.975-1.755Z" transform="translate(-136.897 -111.622)"/><path class="c" d="M607.6,661l.591,2.586.922,2.569,1.044.812,1.8.556,1.256.518,1.8.908.929.664,3.558,1.325,3.989,1.638,4.176,1.323,2.383.129,2.175-1.121,3.187-1.983,4.344-2.777,2.345-1.341.882-1.9,2.146-2.36,1.669-1.277,3.032-1.549,1.8-3.311,1.5-2.132-1.25-.6-1.8.485-2.121-.645-.86-2.322L647.019,649l-.94-.888-1.184-1.5-.2-1.792-1.616-.97-2.311.749-2.16,1.117h-2.234l-1.035-2.629-1.435-1.373-4.788-1.619-2.884.37-1.016-.726-1.825.122-1.837.633-1.457,1.562-1.262-2-1.042-1.041-1.539-.99-.95,1.176.25,1.939.282,1.763.26,1.388-2,2.885-1.068.734-.817,2.245-1.81,2.482-3.106,3.377-1.291.887-1.992.1.974.376Z" transform="translate(-180.794 -173.224)"/><path class="c" d="M509.332,694.979l5.514-1.556,1.132-2.391,1.268-4.933,1.331-4.548,1.341-2.683-.186-1.674,5.99-1.261,3.97-.993,2.134-.68-5.015-5.392L523.494,665l-2.617-.785-2.633-.292-2.077-1.136-.855-.732-5.854-.8-2.118,1.362-2.094-1.142-1.166-2.622-9.005-7.176-4.9-3.639-3.215-1.169-1.89-2.3-.459.046.609,1.584,1.432,2.733.039-.033,2.654,3.126,1.88,3.766,1.915,5.01-.483,3.062-2.187,2.5-2.492,1.466-1.272.89-.837,1.675.247,1.854,1.031,2.358-.343,2.977,3.847,2.122,3.069,1.461,2.67,2.827.154,3.233v4.309l.136,2.3,1.4,4.053,1.521,3.87,2.093,2.485,1.223.376,2.586-3.749Z" transform="translate(-112.484 -176.967)"/><path class="c" d="M856.021,684.642l-6.3-2.294-3.645-1.743v-2.881l2.593-3.89.377-2.764-.934-1.518-3.823-2.167-1.3,3.014-4.11,6.944-1.338,3.42-1.363.908-1.938,2.536-2.341.439-2.067,1.929-3.2,1.659-5.257,1.448-3.818.294-4.268-1.138-3.249.361-.187,1.122.979,5.309.555,3.886,1.656,2.675,3.049.929,5.535,1.418,10.968,3.319,6.189,4.421,3.624,6.232,4.266,6.257,2.593,3.607,2.644,4.592.151.113v-.98l.856-.321,1.123,1.177,2.835.267,1.23-.16,2.674-.588.267-.535-1.123-1.337-1.979-.374-1.765-1.444-.107-2.353,1.391-.909,3.8,2.086,1.551-.053,5.349-4.012.535-1.123.909-1.712.8-1.6.214-1.337,1.391-.267,1.23-1.284.16-1.337,4.225-3.637.053-3.53.428-.428.107-1.712.535-.481-.428-1.712-.963-.7-.963-1.926-.8.107-.481.8-.909-.374-.588-1.337-2.353-1.979-.7.856-.749,1.177-2.46.749-3.156-1.5-.107-1.123-.321-.963-.7-1.337.909-3.1,1.177-.856-.267-1.391.821-.249-3.1-2.786Z" transform="translate(-298.56 -190.019)"/><path class="c" d="M333.06,594.81l1.016-2.757,1.27-1.524,1.453,1.694.515,2.233-.268.537,1.329.818,1.686.843.5,2.714v2.123l1.236,2.341,1.267,3.1,1.326,2.291,16.185-2.562.235-2.7-.452-2.863.884-1.474v-2.182l-1.892-2.619.495-2.772.743-2.36,1.167-2.528,3.882,2.532,2.662,1.464,3.194-.266,1.263-.253-1.2-2.3-.655-1.7-3.87-3.318-5.673-4.253-7.975-5.7-5.691-3.841-3.953-2.823-7.9-3.462-7.032-5.026L323.878,554l-4.422-5.277-3.11-4.239-2.495-1.928-.019.245-.321.535-.642.428-.588.588-.16,3.263L313.3,549.7l.535,1.123.535,1.123.053,1.5-.214,1.818-.963.428-1.123,1.444-1.123,1.6-.107.909-.7,1.123-1.07,1.712-.107,2.246-.267-.588-.107-.642-.7-.428-.642.856-1.07,1.016-1.123.856-1.5,1.177-2.246,1.23-.054,1.23-.588.054-.588,1.177.7.7.374.642-.963.161-1.123,1.123-.8-.107-.963-.481-.7.642-.16.963.588.8.856,2.246.16,2.514-.374-.535-.963-.7-.8.8-1.284,2.246-.642.588-1.872-.214-1.391.16-1.337.749-1.337,1.016-.107.749,5.67,6.044,2.674-.053,3.156,2.621,5.723.214,2.567,1.872.214,1.6.749.267.856.267.16.642-.642.374-.214,1.177.7.8.481,1.979.588.107,3.691-2.567.16-.588,1.016-1.177,1.123-1.07.963-.7,1.23-.8,1.5-.053.267.428.535.963,1.016.535,1.391.535,6.525-.107.076,1.028,1.655-2.206Z" transform="translate(0 -118.6)"/><path class="c" d="M392.114,687.569l2.056.374.164,2.137,1.7,1.962,1.061,1.06,1.236-.721,1.764-1.492,1.183-1.478,1.616-.881,1.591-1.432,2.185.291,1.31-.916,2.394-.684,1.437,1.006,1.854-.463,1.659,2.35,3.994-1.816-1.232,3.7.343.618.948-.211,2.1.419,1.16-.422.961-1.887,2.567-3.138,3.3-3.992.386-3.347-.965-2.206-.323-2.424,1.16-2.319,1.6-1.119,2.335-1.374,1.806-2.065.372-2.358-1.782-4.66-1.8-3.609-2.168-2.53-1.947.387-3.616.3-3.064-1.687L418.8,651.2l-.527,1.142-.688,2.2-.374,2.116,1.817,2.516v2.953l-.827,1.379.4,2.557-.336,3.858-18.046,2.857-1.828-3.169-1.272-3.109-1.343-2.537v-2.382l-.358-1.91-1.191-.6-2.355-1.449.588-1.175-.341-1.476-.259-.3-.156.188L390.7,657.58l-1.32,2.195-2.567,3.423-.045-.033.048,2.34,1.6,2.139.214,1.016.535.7,1.016.481.909.428.053,2.407-1.016.909-.535,1.337-.267,2.246-.267,2.514-.642,1.23-.588.588v1.444l.642.267.321.588.214,1.6-.749-.053-.374,1.177.267,1.123.3.119.039-.491Z" transform="translate(-56.504 -180.761)"/><path class="c" d="M740.555,761.631l-1-3.871-1.674-1.674-.965-2.2-2.3-1.382.239-3.1-.2.074-2.488.779-2.1-.527-.8.795-2.643,2.056-4.3,1.627-4.858,1.159-3.392-.01-2.655-.469-3.889-4.64-2.2-3.074L703.2,740.8l-2.261.58-3.5.167-1.276-4.307-2.129-5.393L690.6,723.98l-2.139-6.133-2.16-5.635-1.089-4.9-1.594-1.169-1.825,1.14-1.909,2.319-1.314,1.971H677.21l-.869,1.861-2.173,2.33-2.864,1-4.291,4.291-2.7.795-2.907-.3-1.858-.12-1.341,1.628,1.61,1.356,2.342,2.03.2,2.246-1.59.867.129,3.344-.319,4.616-.68,2.04,0,3.935-.229,3.209.776,4.813,1.31,2.489,2.98,2.235.158,3.627-.286,3.152v1.671l.516-.364,3.477-2.888,1.658-.214,1.337-1.6-.107-1.016-.909-1.23.214-.7,4.439.16.374,1.337,1.551,3.584,2.353,3.423,5.081,2.942.909-.856-.054-1.07.963-.321.749.909.963-.053,1.444-.642,3.584-2.781.374-1.818,2.193-3.53.856.107,1.872,1.444-.321.856-.428,2.353,1.123,1.337.374,1.391.642.8-1.765,1.6.321,1.23,1.818,2.46.267,1.016-.963.588.214,1.337.963.428.214.909-.963,1.337-1.284,2.086.374,2.193,1.712.428,2.246.588,1.712,1.818,3.263.535,17.65-.161,2.139-1.979.374-.856-1.658-1.123-.107-2.032,3.9-.107,1.5.963,2.14-.214,1.872-2.888,1.872-.107.856-1.391.16-3.744,1.23-1.5v-1.016l.642-.16,2.139-2.032.642-1.07.107-1.712,0-.038-1.381-.691Z" transform="translate(-211.798 -212.193)"/><path class="c" d="M796.847,739.444l-2.548-3.539-4.313-6.329-3.5-6.013-5.792-4.137-10.739-3.25-5.536-1.419-3.54-1.077-2.052-3.315-.59-4.126-1.014-5.505.249-1.5-1.306-1.305-1.821-1.4-4.494-3.06L747,690.478l-5.6-1.127-4.707-1.712-3.938-1.265-3.9-.807-2.248,1-1.8,2.075-3.105,2.964-1.557,1.972,1.655,1.214,1.183,5.324,2.122,5.518,2.138,6.129,3.414,7.823,2.167,5.494,1,3.368,2.425-.115,3.227-.849,2.442,7.326,2.069,2.9,3.542,4.224,2.139.377h3.148l4.594-1.114,4.008-1.521,2.46-1.913,1.227-1.227,2.459.615,2.11-.659,2.05-.77-.332,4.316,1.975,1.185,1.032,2.359,1.75,1.75.993,3.831,1.074.955.751.376.009-.125,1.979-1.391H782.5l3.209-.16,3.37.107,2.46.8,2.353,2.3h.963l.7-.749.481-1.016.7-2.3,1.6-.481,2.353-2.139.01-.282-1.088-.816Z" transform="translate(-247.233 -200.42)"/><path class="c" d="M587.714,795.142l-.127-2.934-2.725-2.044-1.542-2.93-.63-3.9-2.418.344-4.423.305-6.4-6.248.809-1.457-.471-1.294-1.335-4.595.249-1.743-.75-.525-1.34.862v1.575h-3.443l-5.311-1.537-2.742.96-2.324.145-2.824.595-3.25-.975-1.112-1.89-.786.865-1.24,2.323-3.846.923-3.277.683-2.236,1.956-3.237,1.324-3.911,1.335-.095-.277-1.422,2.7,3.8-1.342,2.284,1.142.144,2.16,2.306,1.3v3.188l-2.57,1.353.643,1.929,1.714,1.977,1.985,1.323-.332,1.989.577,2.308-.5,2.014,1.428,1.021,3.839-.591,3.629,4.993,1.7,1.859.126,3.035.329.987,2.888,2.621,2.353,2.407-.107,2.728.749.856,2.032.535.7-.856,1.123-.321,1.551.053.214-.588,2.353-.642,1.23-.749,1.016.481H565.7l1.551-.214,1.07-1.123,2.514-.107.428-.8.535-1.23.16-1.765.8-.856,3.049-.909,2.728-.374,1.07-.535.428-1.444,1.337-1.712,2.032-1.872,1.07-1.337.053-1.5,1.6-.214,1.3-.168,0-2.457Z" transform="translate(-135.906 -247.496)"/><path class="c" d="M513.418,813.759l-3.2-4.392-3.578.551-2.565-1.832.638-2.55-.564-2.256.239-1.434-1.438-.959-1.994-2.3-1.068-3.205,2.849-1.5v-1.662l-2.257-1.27-.141-2.119-1.139-.569-4.593,1.621v0l-.458.87-1.359-.389-4.255.734-4.677-3.322-4.841-4.011-4.084-.409.048-.482-.217.039-1.444-.161-.321.642.428.321.214,2.888,1.337,2.46v1.23l1.551,2.781,5.777,7.755-.107.642-.749-.053-.535.321-.053.8,2.193,2.033,1.872.16-.16.642-1.23.16-.535.909.374.749.321,2.674.481.321.749.909,1.07,1.444.7,1.23.856.053,2.46,2.46L489.955,818l.642.7,1.391,2.193.7,1.765.321,2.674.054,3.37,9.734.267.107-.7.588-1.551.856-1.337L506,824.95l2.353-.107.588-.374,1.5-2.407,1.07-2.246,1.177-1.177,1.658-1.711.576-.408-.049-1.167Z" transform="translate(-105.841 -256.02)"/><path class="c" d="M942.535,610.424l-2.193-1.337-.053-1.177-.054-2.674v-1.979l-.7-1.765-.856-1.284-.214-1.6.428-1.819-.535-1.391-1.016-2.193-1.658-2.942-1.07-2.942.588-1.016-1.123-.8-1.284.7-1.07.642-.374-.428-.5-.183-2.567,2.2-1.76,2.641-3.42,1.635-3.215,1.817-3.013,2.434-1.749,1.113-4.027-.3-3.479.139-1.969.394-5.474,3.558-4.325,7.394-4.347,10.1,4.233,2.4,1.348,2.19-.479,3.512-2.541,3.812v1.684l2.887,1.381,6.246,2.272,6.834,2.907,3.34,3.006V640.8l2.139-1.6.749-4.332,3.209-3.209.053-1.5.374-.963,1.07-.428.428-1.123-.214-.909.374-.428.588-.428.321-1.016-.588-.267-.16-1.07.428-.481,1.07-1.872,3.1-3.744.963-.054.267.8,1.444-.428,2.835-.428.749-.267,2.728.375.267-.8.374-.749,2.353-.428,1.123.642,1.711,1.016v-.7l-.428-1.391-.107-1.284.7-1.016,1.016-.267.642-.642Z" transform="translate(-345.279 -143.171)"/><path class="c" d="M426.232,753.6l4.184,2.97,4.018-.693.638.182,2.294-4.359-1.482-.456-2.472-2.935-1.607-4.091-1.465-4.246-.148-2.513V733.14l-.13-2.727-2.179-2.307-2.887-1.375-3.559-1.963-5.892,7.154-1.081,2.161-1.978.72-2.183-.437-1.619.359-1.083-1.949.48-1.439-2.281,1.037-1.764-2.5-1.569.392-1.416-.991-1.6.457-1.543,1.08-2.093-.279-1.328,1.172-1.456.794-1.147,1.414-1.945,1.634L387.8,736.8l-1.807-1.809-1.993-2.3-.121-1.572-1.05-.191-3.177-.255-1.393.723-.214,2.353-.267,1.391-1.23,1.23-.856,1.016-.374,1.07-1.016.214-.909.535-1.712-.053-.588,1.07-.214,1.391.535,1.284.7,1.016-.107,1.23,1.551,1.391.749.481,1.07-.267.481-.374,1.23.374,1.391.856.321,1.284-.856.7-2.086,1.177-.16.642.321,1.872.16,2.353-.267,1.123-1.658.321-.749.963-.374,1.6-.535-.054-.321,1.016.8.588,1.123,1.07,1.123.161.963-.8.107-.588.588-1.23.749-.267.535.909h.856l.214-.7,1.016-.16.749.909h1.284l.588-.642,1.979-1.23.535.214,1.177.588.642,1.016,1.391-.214.267-.535.909.107,1.123-.481,1.658.214,1.818,2.086,2.246.107.267-1.123-.963-.374-.214-.8,1.07-.909-.107-2.3.588-1.658,3.049.321L402.592,753v-1.016l.749-.535,1.391-.16.535-.8,1.658-1.979,1.123-1.551,1.6-.749,2.086-1.551.909.267,2.781,1.712.053,1.765.642.267h.7l.267-.428.535.16-.057.6,3.543.354Z" transform="translate(-47.414 -222.848)"/><path class="c" d="M581.206,729.958l-.94.671-3.068-1.776-3.135-1.994-12.353-6.317-1.021.114-4.117,1.418-3.851,1-3.306.752-2.5-.626-1.17,2.34-1.267,4.365-1.32,5.088-1.409,2.973-5.611,1.583-3.577,5.5-2.518,3.651,3.056-1.043,3-1.229,2.329-2.037,3.588-.748,3.266-.784,1.1-2.015,2.013-2.214,1.74,2.959,2.455.736,2.642-.549,2.194-.138,2.963-1.037,5.53,1.6h1.977v-.992l2.654-1.706,2.1,1.471-.321,2.25,1.245,4.289.657,1.8-.617,1.111,5.291,5.162,3.826-.264,2.326-.332.238-3.331v-4.075l.719-2.159.278-4.306-.156-4.073,1.548-.845-.081-.892-1.944-1.684-2.7-2.276Z" transform="translate(-138.475 -220.43)"/><path class="c" d="M609.265,494.744l.8,1.82-.229,2.448-.316,2.137,2.445,3.77-1.081,1.561.148,2.292,1.432-.421,2.838,3.1-.385,2.175-.583,2.271-.44.881.365,2.1,1.483,1.977-1.566,2.048-.091,1.636.511,2.171-2.571,1.646,1.08,2.16,3.975,3.669,3.171.921,2.124.664.1.863,2.49-1.125,4.823.006,4.763.635,3.878-.1,1.91-.9,2.8-1.281,3.317.995,3.8-.411,1.784-.335,3.628.44,2.781.4,2.313-1.4v-4.988h-.9l-1.938,1.421-1.189-1.529-.721-1.855-1.282-1.042-1.142.476-1.052-.316L650,526.909l-1.561-2.412-.309-2.268-1.406-1.32-2.386-3.181.082-1.63-1.475.14-3.847.77-4.543-1.048-1.58-2.212-3.641-.416-3.55-2.789,1.511-3.022,5.892-2.736.122-.671-.757-1.947.183-.732-.593-.692.149-2.447.434-1.389-2.261-2.878-.229-2.4-.4-2-1.552-2.69-1.33-2.149-1.922-1.7-.422-2.748-2.622,1.341-1.263.772-1.833.994-3.066.527h-.736l-1.45,2.071-2.527.553-1.564.3-.833,1.611.477,3.507Z" transform="translate(-183.487 -83.009)"/><path class="c" d="M737.822,563.51l2.144-.877,2.424-1.433,2.569-.344h2.728l5.07,2.7,2.361,2.9,4.243,2.484,5.3,2.08,3.518.093.486-.971,2.575-4.829,1.181-2.444-.13-.024-.273-2.459.21-2.893-.755-2.819-2.727-5.087-1.772-2.492-.622-3.594-.223-4.843,1.862-3.193-.538-5.384-4.057,2.681-1.9-.065-2.288,3.788-1.63-.091-3.275.2-1.7.73-2.22,3.7h-1.941l-1.476-.737-1.046.318-1.085,4.412L743,545.3l-.517,2.583-2.968,3.339-3.475,3.459-2.709,1.806v5.173l2.747,1.57Z" transform="translate(-254.781 -111.466)"/><path class="c" d="M668.01,608.914l-3.419-.414-1.664.31-4.087.442-3.1-.931-2.347,1.076-2.147,1.017-4.252.112-4.822-.643h-4.419l-2.618,1.182.049.444-1.648,1.648-.107,2.139-1.93,1.93-.906,1.63,1.711,1.016-.032.04,1.589,1.035,1.23,1.252.411.652.539-.578,2.3-.793,2.454-.164.98.7,2.678-.344,5.339,1.8,1.846,1.765.818,2.078H653.5l2.026-1.038,2.917-.946,2.663,1.6.229,2.059.738.935,2.6-2.475,1.515-1.788,1.516-1.121.523-1.046.378-3.175,2.39-1.622,1.447-.06.606-1.878,1.71-2.422.2-.631-1.456-1.191-.189-4.4-2.077,1.261Z" transform="translate(-196.001 -156.109)"/><path class="c" d="M752.075,615.242l-3.143-.083-5.65-2.224-4.486-2.626-2.345-2.878L731.893,605h-2.363l-2.182.3-2.325,1.366-2.52,1.031-2.326-.367-2.289-1.308.175,4.087,1.682,1.376-.516,1.651-1.713,2.427L716.7,618.1l-1.976.082-1.6,1.088-.335,2.816-.761,1.521-1.7,1.258-1.427,1.706-2.6,2.481.51.476.076,2.516.566,1.529,1.16.353,1.906-.513,1.787.874,1.12-2.146,1.751-1.751,4.708-.076,2.2.152,5.089,2.108,5.327,1.988,6.092,2.125,2.906.727,1.645.909,1.593-3.732,5.412-11.52,3.009-6.284.132-.853-1.217-.669Z" transform="translate(-239.309 -154.327)"/></g><g transform="translate(-80 324.775)"><g transform="translate(151.971 7)"><g class="h" transform="matrix(1, 0, 0, 1, -56.5, -157.29)"><path class="d" d="M6.438-.87h15.37q.261,0,.261-.232V-5.8a1.885,1.885,0,0,0-.58-1.406A1.923,1.923,0,0,0,20.1-7.772H3.741a.205.205,0,0,0-.232.232v2.117q0,.261.232.261h15.37V-3.48H3.741q-.232,0-.232.261V1.45a1.958,1.958,0,0,0,.565,1.421,1.885,1.885,0,0,0,1.407.58H21.808a.231.231,0,0,0,.261-.261V1.073q0-.232-.261-.232H6.438Zm18.5-15.6H22.069v-4.437q0-.232-.261-.232H19.372q-.261,0-.261.232V-9.28a.231.231,0,0,0,.261.261h2.436a.231.231,0,0,0,.261-.261v-4.437H24.94a.205.205,0,0,0,.232-.232V-16.24A.205.205,0,0,0,24.94-16.472ZM5.742-9.657a8.94,8.94,0,0,0,2.726.406,8.842,8.842,0,0,0,2.7-.406,8.842,8.842,0,0,0,1.16-.479,4.166,4.166,0,0,0,.986-.681A5.524,5.524,0,0,0,15.167-15.2a6.339,6.339,0,0,0-.435-2.349,4.967,4.967,0,0,0-1.392-1.943,6.28,6.28,0,0,0-2.146-1.2,8.484,8.484,0,0,0-2.726-.42A7.094,7.094,0,0,0,3.6-19.546,5.436,5.436,0,0,0,1.74-15.2a5.476,5.476,0,0,0,1.827,4.35A5.811,5.811,0,0,0,5.742-9.657Zm-.261-7.714a4.514,4.514,0,0,1,2.987-.841,4.216,4.216,0,0,1,2.929.9,2.651,2.651,0,0,1,.87,2.117,2.77,2.77,0,0,1-.841,2.175,4.428,4.428,0,0,1-2.958.87,4.477,4.477,0,0,1-2.987-.87A2.77,2.77,0,0,1,4.64-15.2,2.77,2.77,0,0,1,5.481-17.371ZM42.854-.943H34.689V-7.8A.183.183,0,0,0,34.482-8H32.55q-.184,0-.184.207V-.943H25.949q-.184,0-.184.207V1.058q0,.207.184.207H42.854a.183.183,0,0,0,.207-.207V-.736A.183.183,0,0,0,42.854-.943ZM27.1-16.261v1.909q0,.207.184.207H39.4v9.384q0,.207.184.207h1.955q.184,0,.184-.207v-10.12a1.553,1.553,0,0,0-.448-1.127,1.5,1.5,0,0,0-1.116-.46H27.283Q27.1-16.468,27.1-16.261ZM6.624,17.776a10.022,10.022,0,0,0,1.518,1.932,12.607,12.607,0,0,0,3.312,2.323.174.174,0,0,0,.149.023.22.22,0,0,0,.127-.092l.828-1.725q.092-.161-.092-.253a8.778,8.778,0,0,1-4.048-3.726,4.726,4.726,0,0,1-.552-1.437q-.092-.587-.092-.633V12.739q0-.207-.184-.207H5.681a.183.183,0,0,0-.207.207v1.472a2.467,2.467,0,0,1-.069.552,6.516,6.516,0,0,1-.483,1.38,6.886,6.886,0,0,1-.541.885,8.152,8.152,0,0,1-.828.978,9.273,9.273,0,0,1-1.173,1,11.884,11.884,0,0,1-1.576.954.211.211,0,0,0-.092.276l.828,1.725q.092.184.276.069a12.7,12.7,0,0,0,3.312-2.323A9.1,9.1,0,0,0,6.624,17.776Zm1.15-3.565v-.023ZM16.905,23.8H2.576q-.184,0-.184.207V25.8q0,.207.184.207H16.905a.183.183,0,0,0,.207-.207V24.009A.183.183,0,0,0,16.905,23.8Zm0,5.727H15.272l.253-2.783q.047-.207-.184-.207H13.409a.163.163,0,0,0-.184.184l-.3,2.806H6.578l-.3-2.806a.163.163,0,0,0-.184-.184H4.163a.183.183,0,0,0-.207.207l.276,2.783H2.576q-.184,0-.184.207V31.53q0,.207.184.207H16.905a.183.183,0,0,0,.207-.207V29.736A.183.183,0,0,0,16.905,29.529Zm0-17.3H14.973q-.207,0-.207.184V22.445a.183.183,0,0,0,.207.207h1.932a.183.183,0,0,0,.207-.207V12.417Q17.112,12.233,16.905,12.233Zm13.44,5.8a21.71,21.71,0,0,0,3.639-.275,13.732,13.732,0,0,0,2.828-.769,5.691,5.691,0,0,0,2.175-1.566,3.7,3.7,0,0,0,.928-2.494,4.813,4.813,0,0,0-.1-.9,3.3,3.3,0,0,0-.435-1.073,4.768,4.768,0,0,0-.943-1.087A6.17,6.17,0,0,0,36.841,8.9a16.63,16.63,0,0,0-6.5-1.044,22.477,22.477,0,0,0-3.582.261,12.1,12.1,0,0,0-2.827.783,5.981,5.981,0,0,0-1.667.986,4.871,4.871,0,0,0-.957,1.1,3.318,3.318,0,0,0-.435,1.059,4.591,4.591,0,0,0-.1.885,3.916,3.916,0,0,0,.9,2.494,5.893,5.893,0,0,0,2.146,1.537A16.576,16.576,0,0,0,30.345,18.038Zm0-7.279a20.711,20.711,0,0,1,3.06.2,9.1,9.1,0,0,1,2.276.609,4.713,4.713,0,0,1,.769.435,1.757,1.757,0,0,1,.406.392.747.747,0,0,1,.145.319,2.035,2.035,0,0,1,.014.218q0,.087-.014.232a.744.744,0,0,1-.145.333,2,2,0,0,1-.406.406,3.153,3.153,0,0,1-.8.42,13.821,13.821,0,0,1-5.307.812,14.015,14.015,0,0,1-5.365-.812,2.944,2.944,0,0,1-.754-.42,2.143,2.143,0,0,1-.392-.406.742.742,0,0,1-.145-.333q-.014-.145-.014-.232,0-.754,1.392-1.363A14,14,0,0,1,30.345,10.759ZM19.673,19.4H40.988a.231.231,0,0,1,.261.261v2.262a.231.231,0,0,1-.261.261H19.673q-.232,0-.232-.261V19.662Q19.441,19.4,19.673,19.4Zm4.176,10.266H39.538a.231.231,0,0,1,.261.261V32.19a.231.231,0,0,1-.261.261H22.892a1.885,1.885,0,0,1-1.407-.58,1.958,1.958,0,0,1-.565-1.421V23.983q0-.261.232-.261h2.436a.231.231,0,0,1,.261.261Z" transform="translate(56.53 195.52)"/></g><g class="g" transform="matrix(1, 0, 0, 1, -56.5, -157.29)"><path class="d" d="M40.015-38.637H35.563a.375.375,0,0,0-.424.424v15.635H24.115q-.477,0-.477.424v4.187q0,.424.477.424H35.139V5.83q0,.477.424.477h4.452a.422.422,0,0,0,.477-.477V-38.213Q40.492-38.637,40.015-38.637ZM23.956-8.268q-1.007-1.537-2.067-3.5a33.4,33.4,0,0,1-1.908-4.24A33.269,33.269,0,0,1,18.6-20.829a25.661,25.661,0,0,1-.53-5.247v-11.4q0-.477-.424-.477h-4.4a.422.422,0,0,0-.477.477v11.4a25.661,25.661,0,0,1-.53,5.247,33.263,33.263,0,0,1-1.378,4.823,33.4,33.4,0,0,1-1.908,4.24Q7.9-9.8,6.89-8.268A36.355,36.355,0,0,1,3.445-3.631Q1.8-1.8,1.166-1.166a.4.4,0,0,0,0,.636L2.65,1.113,4.134,2.7q.318.371.689,0,.689-.689,2.517-2.73a46.827,46.827,0,0,0,3.949-5.221q1.219-1.961,2.279-3.9a34.806,34.806,0,0,0,1.855-3.948,34.807,34.807,0,0,0,1.855,3.948q1.06,1.935,2.332,3.9a43.044,43.044,0,0,0,3.9,5.221q1.828,2.041,2.57,2.73.318.424.636,0L29.68-.53a.4.4,0,0,0,0-.636Q29.044-1.8,27.4-3.631A36.355,36.355,0,0,1,23.956-8.268Zm33.367-5.493a27.93,27.93,0,0,0,4.059-.264,17.85,17.85,0,0,0,3.135-.726,6.835,6.835,0,0,0,2.442-1.518,3.6,3.6,0,0,0,1.089-2.64,4.629,4.629,0,0,0-.116-.941,3.31,3.31,0,0,0-.479-1.106A4.95,4.95,0,0,0,66.4-22.077a6.567,6.567,0,0,0-1.848-.99,21.379,21.379,0,0,0-7.227-.99,29.3,29.3,0,0,0-3.977.247,15.27,15.27,0,0,0-3.152.743,7.092,7.092,0,0,0-2.475,1.485,4.044,4.044,0,0,0-.858,1.237,3.532,3.532,0,0,0-.3,1.436,4.629,4.629,0,0,0,.115.94,3.154,3.154,0,0,0,.5,1.106,5.023,5.023,0,0,0,1.072,1.106,6.861,6.861,0,0,0,1.848.974A20.913,20.913,0,0,0,57.323-13.761Zm0-7a22.441,22.441,0,0,1,3.877.264,14.372,14.372,0,0,1,2.162.528,3.507,3.507,0,0,1,.957.462q.429.3.429.594t-.445.577a5.813,5.813,0,0,1-.941.479,14.085,14.085,0,0,1-2.574.577,24.988,24.988,0,0,1-3.465.215,22.69,22.69,0,0,1-3.91-.264,14.306,14.306,0,0,1-2.162-.528A1.937,1.937,0,0,1,50.888-18q-.231-.115-.462-.247a1.862,1.862,0,0,1-.4-.3.5.5,0,0,1-.165-.363q0-.2.363-.495a3.765,3.765,0,0,1,1.122-.561,11.723,11.723,0,0,1,2.574-.594A26.45,26.45,0,0,1,57.323-20.757Zm12.111,7.92a.263.263,0,0,1,.3.3v2.574a.263.263,0,0,1-.3.3H58.808v1.287h7a2.04,2.04,0,0,1,1.568.66,2.251,2.251,0,0,1,.61,1.584v5.115a.233.233,0,0,1-.264.264H49.931V.957H67.718q.264,0,.264.3V3.63a.233.233,0,0,1-.264.264H48.809a2.188,2.188,0,0,1-1.584-.644,2.145,2.145,0,0,1-.66-1.6V-3.432q0-.264.3-.264H64.715V-5.412H46.862a.263.263,0,0,1-.3-.3V-8.085a.263.263,0,0,1,.3-.3h8.613V-9.669h-10.3q-.264,0-.264-.3V-12.54q0-.3.264-.3Zm41.86-8.045H72.339q-.424,0-.424.477v4.134q0,.477.424.477H88.875v2.385H75.042a.422.422,0,0,0-.477.477v3.816a.422.422,0,0,0,.477.477h28.673v2.756H75.042q-.477,0-.477.424V2.7a3.445,3.445,0,0,0,1.06,2.571,3.515,3.515,0,0,0,2.544,1.033h30.475a.375.375,0,0,0,.424-.424V2.067q0-.477-.424-.477H79.971V-1.166h28.673a.375.375,0,0,0,.424-.424V-9.805a3.515,3.515,0,0,0-1.033-2.544,3.445,3.445,0,0,0-2.57-1.06H94.228v-2.385h17.066a.422.422,0,0,0,.477-.477v-4.134A.422.422,0,0,0,111.294-20.882ZM78.169-23.267h27.3a3.445,3.445,0,0,0,2.57-1.06,3.514,3.514,0,0,0,1.033-2.544v-8.162a3.489,3.489,0,0,0-1.033-2.57,3.489,3.489,0,0,0-2.57-1.034h-27.3A3.515,3.515,0,0,0,75.625-37.6a3.445,3.445,0,0,0-1.06,2.57v8.162a3.47,3.47,0,0,0,1.06,2.544A3.47,3.47,0,0,0,78.169-23.267Zm1.8-5.088V-33.6h23.744v5.247Zm47.406,5.443H115.889a.255.255,0,0,0-.288.288v2.688q0,.256.288.256h10.4q-.1.992-.352,2.464a29.939,29.939,0,0,1-.752,3.184,27.255,27.255,0,0,1-1.312,3.536,20.631,20.631,0,0,1-2.048,3.552A19.3,19.3,0,0,1,118.9-3.712a16.264,16.264,0,0,1-3.968,2.56q-.256.064-.128.352l1.088,2.432q.1.288.352.16a18.987,18.987,0,0,0,4.736-3.04,22.891,22.891,0,0,0,3.472-3.84,22.146,22.146,0,0,0,2.384-4.256,36.093,36.093,0,0,0,1.5-4.272,32.415,32.415,0,0,0,.848-3.872q.272-1.808.368-3.088a2.12,2.12,0,0,0-.576-1.632A2.072,2.072,0,0,0,127.377-22.912Zm12.96,10.56h-3.168v-10.72a.226.226,0,0,0-.256-.256h-2.688q-.288,0-.288.256V3.52a.255.255,0,0,0,.288.288h2.688q.256,0,.256-.288V-9.28h3.168a.255.255,0,0,0,.288-.288v-2.5A.255.255,0,0,0,140.337-12.352Z" transform="translate(101.53 215.52)"/></g></g></g><g transform="translate(115 209.176)"><g class="f" transform="matrix(1, 0, 0, 1, -99.53, -34.69)"><path class="e" d="M26.639,111V100.223H103.36V111ZM10.656,89.446V78.67H119.344V89.446ZM5.328,67.893V57.116H124.672V67.893ZM0,46.34V35.563H34.1V10.777H44.754V35.563H85.779V10.777H96.434V35.563H130V46.34ZM44.754,10.777V0H85.779V10.777Z" transform="translate(99.53 35.52)"/></g></g></g></svg>