<svg xmlns="http://www.w3.org/2000/svg" xmlns:xlink="http://www.w3.org/1999/xlink" width="112" height="112" viewBox="0 0 112 112"><defs><style>.a{fill:#fff;stroke:#707070;}.b{clip-path:url(#a);}.c{fill:#f5f5f5;}.d{fill:#4b4b4b;}.e,.f{stroke:none;}.f{fill:#4b4b4b;}</style><clipPath id="a"><rect class="a" width="112" height="112" transform="translate(208 176)"/></clipPath></defs><g class="b" transform="translate(-208 -176)"><g transform="translate(171.1 21.19)"><g class="c" transform="translate(68.323 180.381)"><path class="e" d="M 24.53328704833984 59.35669708251953 C 20.37152671813965 59.35669708251953 16.32470703125 58.21349716186523 12.83033657073975 56.05069732666016 C 9.432676315307617 53.94775772094727 6.698396682739258 50.98130798339844 4.923086643218994 47.47206497192383 L 4.896406650543213 47.41931533813477 L 4.86565637588501 47.36883544921875 C 4.341176509857178 46.50784683227539 3.898126602172852 45.59394836425781 3.548806428909302 44.65251541137695 C 2.866166591644287 42.81228637695312 1.92254650592804 39.9235954284668 1.611146569252014 36.10172653198242 C 1.290106534957886 32.16161727905273 1.655296564102173 27.88195610046387 2.727586507797241 23.01818656921387 C 3.282166481018066 20.50267601013184 4.350886344909668 17.8208065032959 5.818216323852539 15.26248645782471 C 7.262486457824707 12.74437618255615 9.098936080932617 10.33194637298584 11.12903690338135 8.285996437072754 C 13.19327640533447 6.205646514892578 15.471116065979 4.493536472320557 17.71631622314453 3.33475661277771 C 20.0752067565918 2.117296695709229 22.36876678466797 1.499996662139893 24.53328704833984 1.499996662139893 C 28.91890716552734 1.499996662139893 33.85643768310547 3.95431661605835 38.07983779907227 8.233636856079102 C 42.31333541870117 12.5231761932373 45.30261611938477 18.07710647583008 46.28120803833008 23.47133636474609 C 48.30844497680664 34.64626693725586 46.9194450378418 39.33284759521484 45.57618713378906 43.86512756347656 L 45.48162841796875 44.18440628051758 C 45.3907356262207 44.49161529541016 45.28157806396484 44.8076057434082 45.15720748901367 45.12346649169922 L 45.14960479736328 45.14275741577148 L 45.14255523681641 45.16223526000977 C 44.40283584594727 47.20470809936523 43.34671783447266 49.12176513671875 42.00353622436523 50.86016845703125 C 40.67284774780273 52.5823860168457 39.08787536621094 54.09438705444336 37.29264831542969 55.35417556762695 C 33.5612678527832 57.9726448059082 29.14914703369141 59.35669708251953 24.53328704833984 59.35669708251953 Z"/><path class="f" d="M 24.53329277038574 3.000003814697266 C 20.69092559814453 3.000003814697266 16.193359375 5.311767578125 12.19381332397461 9.342525482177734 C 10.25434875488281 11.29713439941406 8.499637603759766 13.60227966308594 7.119380950927734 16.00878143310547 C 5.726779937744141 18.43680191040039 4.714649200439453 20.9722900390625 4.192401885986328 23.34113693237305 C 3.15277099609375 28.05678939819336 2.797458648681641 32.19097137451172 3.106182098388672 35.97991180419922 C 3.334835052490234 38.78625869750977 3.905101776123047 41.30012512207031 4.955112457275391 44.13072204589844 C 5.271091461181641 44.98230361938477 5.672004699707031 45.80921173095703 6.146701812744141 46.58849334716797 L 6.208202362060547 46.68945693969727 L 6.261569976806641 46.79494476318359 C 7.912315368652344 50.05797958374023 10.45673751831055 52.81751251220703 13.61977005004883 54.77523422241211 C 16.87680244445801 56.79114532470703 20.65063667297363 57.856689453125 24.53329277038574 57.856689453125 C 28.83919143676758 57.856689453125 32.9533576965332 56.56675720214844 36.43101501464844 54.12633514404297 C 38.10268020629883 52.95326995849609 39.57818222045898 51.54580307006836 40.81657028198242 49.94304656982422 C 42.06453704833984 48.3278694152832 43.04550170898438 46.54751205444336 43.73219299316406 44.65145874023438 L 43.76149368286133 44.57391357421875 C 43.86992645263672 44.29853820800781 43.96473693847656 44.02426910400391 44.043212890625 43.75900268554688 L 44.13801574707031 43.43888854980469 C 44.80978012084961 41.17230224609375 45.44428253173828 39.03142547607422 45.69424819946289 36.08328247070312 C 45.98366928100586 32.66970062255859 45.69289398193359 28.63187026977539 44.80529022216797 23.73908996582031 C 43.87928009033203 18.63468170166016 41.03882598876953 13.36720275878906 37.01222610473633 9.287303924560547 C 33.06877136230469 5.291637420654297 28.52037048339844 3.000003814697266 24.53329277038574 3.000003814697266 M 24.53329277038574 3.814697265625e-06 C 34.67843627929688 3.814697265625e-06 45.61796951293945 11.41206741333008 47.75711441040039 23.20359039306641 C 49.89620208740234 34.99509048461914 48.31490325927734 39.89335632324219 46.92003631591797 44.60981369018555 C 46.81766891479492 44.95583343505859 46.69539260864258 45.3111457824707 46.55290222167969 45.67302322387695 C 43.34924697875977 54.51879119873047 34.70009231567383 60.856689453125 24.53329277038574 60.856689453125 C 15.34315872192383 60.856689453125 7.393280029296875 55.67776870727539 3.584625244140625 48.14919281005859 C 2.980445861816406 47.15735626220703 2.503826141357422 46.14815902709961 2.142490386962891 45.17433547973633 C 0.33282470703125 40.29592514038086 -1.158340454101562 33.6769905090332 1.262760162353516 22.69524765014648 C 3.683815002441406 11.7135009765625 14.55553817749023 3.814697265625e-06 24.53329277038574 3.814697265625e-06 Z"/></g><g transform="translate(87.52 203.23)"><rect class="d" width="4" height="11" rx="2" transform="translate(10.759)"/><rect class="d" width="4" height="11" rx="2" transform="translate(-4)"/></g></g></g></svg>