<svg xmlns="http://www.w3.org/2000/svg" xmlns:xlink="http://www.w3.org/1999/xlink" width="112" height="112" viewBox="0 0 112 112"><defs><style>.a{fill:#fff;stroke:#707070;}.b{clip-path:url(#a);}.c,.d{fill:#f5f5f5;}.d{stroke:#4b4b4b;stroke-width:3px;}.e{fill:#4b4b4b;}.f,.g{stroke:none;}.g{fill:#707070;}.h{fill:none;}</style><clipPath id="a"><rect class="a" width="112" height="112" transform="translate(208 176)"/></clipPath></defs><g class="b" transform="translate(-208 -176)"><g transform="translate(171.1 28.619)"><g class="c" transform="translate(76.971 180.935) rotate(-45)"><path class="f" d="M 1.499997854232788 19.82701301574707 L 1.499997854232788 11.48377418518066 C 1.499997854232788 5.978704452514648 6.091477870941162 1.500004649162292 11.73517799377441 1.500004649162292 L 20.29389762878418 1.500004649162292 L 20.29389762878418 9.843235015869141 C 20.29389762878418 15.34830474853516 15.70241832733154 19.82700538635254 10.05871772766113 19.82700538635254 L 1.499997854232788 19.82701301574707 Z"/><path class="g" d="M 2.999997854232788 18.32701110839844 L 10.05871772766113 18.32700538635254 C 14.8753080368042 18.32700538635254 18.79389762878418 14.52120494842529 18.79389762878418 9.843235015869141 L 18.79389762878418 3.000004529953003 L 11.73517799377441 3.000004529953003 C 6.918587684631348 3.000004529953003 2.999997854232788 6.80580472946167 2.999997854232788 11.48377418518066 L 2.999997854232788 18.32701110839844 M -2.139282287316746e-06 21.3270149230957 L -2.139282287316746e-06 11.48377418518066 C -2.139282287316746e-06 5.141464710235596 5.25401782989502 4.600524789566407e-06 11.73517799377441 4.600524789566407e-06 L 21.79389762878418 4.600524789566407e-06 L 21.79389762878418 9.843235015869141 C 21.79389762878418 16.18554496765137 16.53987693786621 21.32700538635254 10.05871772766113 21.32700538635254 L -2.139282287316746e-06 21.3270149230957 Z"/></g><g class="d" transform="translate(62 187.238)"><rect class="f" width="61.8" height="54" rx="22"/><rect class="h" x="1.5" y="1.5" width="58.8" height="51" rx="20.5"/></g><g class="d" transform="translate(82 211.238)"><rect class="f" width="21.8" height="29" rx="10.9"/><rect class="h" x="1.5" y="1.5" width="18.8" height="26" rx="9.4"/></g><g transform="translate(79.9 203.23)"><rect class="e" width="4" height="11" rx="2" transform="translate(22)"/><rect class="e" width="4" height="11" rx="2"/></g><rect class="e" width="19" height="4" transform="translate(82.9 223.641)"/></g></g></svg>