<svg xmlns="http://www.w3.org/2000/svg" xmlns:xlink="http://www.w3.org/1999/xlink" width="112" height="112" viewBox="0 0 112 112"><defs><style>.a{fill:#fff;stroke:#707070;}.b{clip-path:url(#a);}.c,.d{fill:#f5f5f5;}.d{stroke:#4b4b4b;stroke-width:3px;}.e{fill:#4b4b4b;}.f,.g{stroke:none;}.g{fill:#707070;}.h{fill:none;}</style><clipPath id="a"><rect class="a" width="112" height="112" transform="translate(38 176)"/></clipPath></defs><g class="b" transform="translate(-38 -176)"><g transform="translate(1.1 16.359)"><g class="c" transform="translate(45.9 208.875) rotate(-60)"><path class="f" d="M 20.29389762878418 19.82700347900391 L 11.7351770401001 19.82700347900391 C 6.091476917266846 19.82700347900391 1.499996900558472 15.34830284118652 1.499996900558472 9.843233108520508 L 1.499996900558472 1.50000274181366 L 10.05871677398682 1.50000274181366 C 15.70241737365723 1.50000274181366 20.29389762878418 5.978702545166016 20.29389762878418 11.48377227783203 L 20.29389762878418 19.82700347900391 Z"/><path class="g" d="M 2.999996185302734 3.000001907348633 L 2.999996185302734 9.843233108520508 C 2.999996185302734 14.52120208740234 6.918586730957031 18.32700347900391 11.7351770401001 18.32700347900391 L 18.79389762878418 18.32700347900391 L 18.79389762878418 11.48377227783203 C 18.79389762878418 6.805802345275879 14.87530708312988 3.000001907348633 10.05871677398682 3.000001907348633 L 2.999996185302734 3.000001907348633 M -3.814697265625e-06 1.9073486328125e-06 L 10.05871677398682 1.9073486328125e-06 C 16.53987693786621 1.9073486328125e-06 21.79389762878418 5.141462326049805 21.79389762878418 11.48377227783203 L 21.79389762878418 21.32700347900391 L 11.7351770401001 21.32700347900391 C 5.254016876220703 21.32700347900391 -3.814697265625e-06 16.18554306030273 -3.814697265625e-06 9.843233108520508 L -3.814697265625e-06 1.9073486328125e-06 Z"/></g><g transform="translate(65.9 171.641)"><g class="c" transform="matrix(0.966, 0.259, -0.259, 0.966, 41.443, 0)"><path class="f" d="M 10.20198822021484 17.49999618530273 L 2.79800820350647 17.49999618530273 C 2.574218034744263 17.49999618530273 2.447098016738892 17.368896484375 2.39123797416687 17.29075622558594 C 2.335378170013428 17.21260643005371 2.252488136291504 17.04988670349121 2.324928045272827 16.83813667297363 L 6.026917934417725 6.016946315765381 C 6.122528076171875 5.737456321716309 6.336957931518555 5.678796291351318 6.499998092651367 5.678796291351318 C 6.66303825378418 5.678796291351318 6.877468109130859 5.737456321716309 6.97307825088501 6.016946315765381 L 10.67506790161133 16.8381462097168 C 10.74750804901123 17.04988670349121 10.66461849212646 17.21260643005371 10.60875797271729 17.29074668884277 C 10.55289840698242 17.368896484375 10.42577838897705 17.49999618530273 10.20198822021484 17.49999618530273 Z"/><path class="g" d="M 6.499996185302734 9.268183708190918 L 4.197009086608887 15.99999618530273 L 8.802989959716797 15.99999618530273 L 6.499996185302734 9.268183708190918 M 6.499998092651367 4.178791046142578 C 7.291915416717529 4.178791046142578 8.083833694458008 4.629667282104492 8.392328262329102 5.531415939331055 L 12.09431838989258 16.35261535644531 C 12.53832817077637 17.65051651000977 11.57373809814453 18.99999618530273 10.20198822021484 18.99999618530273 L 2.798007965087891 18.99999618530273 C 1.426258087158203 18.99999618530273 0.4616584777832031 17.65051651000977 0.9056777954101562 16.35261535644531 L 4.607667922973633 5.531415939331055 C 4.916163444519043 4.629667282104492 5.708080768585205 4.178791046142578 6.499998092651367 4.178791046142578 Z"/></g><g class="c" transform="matrix(0.966, -0.259, 0.259, 0.966, 0, 3.365)"><path class="f" d="M 10.20199108123779 17.49999618530273 L 2.798011541366577 17.49999618530273 C 2.57422137260437 17.49999618530273 2.447101354598999 17.36889457702637 2.391241312026978 17.29074478149414 C 2.335381507873535 17.21260643005371 2.252491474151611 17.04988479614258 2.324931383132935 16.8381462097168 L 6.026921272277832 6.016945362091064 C 6.122531414031982 5.737455368041992 6.336961269378662 5.678795337677002 6.500001430511475 5.678795337677002 C 6.663041591644287 5.678795337677002 6.877471446990967 5.737455368041992 6.973081588745117 6.016945362091064 L 10.67507171630859 16.8381462097168 C 10.7475118637085 17.04988479614258 10.66462135314941 17.21260643005371 10.60876178741455 17.29074478149414 C 10.55290126800537 17.36889457702637 10.42578125 17.49999618530273 10.20199108123779 17.49999618530273 Z"/><path class="g" d="M 6.499999523162842 9.268182754516602 L 4.197011947631836 15.99999618530273 L 8.802992820739746 15.99999618530273 L 6.499999523162842 9.268182754516602 M 6.500001430511475 4.178791046142578 C 7.291918754577637 4.178791046142578 8.083836555480957 4.629665374755859 8.392332077026367 5.531415939331055 L 12.09432125091553 16.35261535644531 C 12.5383415222168 17.65051651000977 11.5737419128418 18.99999618530273 10.20199108123779 18.99999618530273 L 2.798011779785156 18.99999618530273 C 1.426261901855469 18.99999618530273 0.4616613388061523 17.65051651000977 0.9056816101074219 16.35261535644531 L 4.607671737670898 5.531415939331055 C 4.916166305541992 4.629665374755859 5.708084106445312 4.178791046142578 6.500001430511475 4.178791046142578 Z"/></g></g><g class="c" transform="translate(121.43 219.538) rotate(-120)"><path class="f" d="M 1.499997854232788 19.82701301574707 L 1.499997854232788 11.48377418518066 C 1.499997854232788 5.978704452514648 6.091477870941162 1.500004649162292 11.73517799377441 1.500004649162292 L 20.29389762878418 1.500004649162292 L 20.29389762878418 9.843235015869141 C 20.29389762878418 15.34830474853516 15.70241832733154 19.82700538635254 10.05871772766113 19.82700538635254 L 1.499997854232788 19.82701301574707 Z"/><path class="g" d="M 2.999997854232788 18.32701110839844 L 10.05871772766113 18.32700538635254 C 14.8753080368042 18.32700538635254 18.79389762878418 14.52120494842529 18.79389762878418 9.843235015869141 L 18.79389762878418 3.000004529953003 L 11.73517799377441 3.000004529953003 C 6.918587684631348 3.000004529953003 2.999997854232788 6.80580472946167 2.999997854232788 11.48377418518066 L 2.999997854232788 18.32701110839844 M -2.139282287316746e-06 21.3270149230957 L -2.139282287316746e-06 11.48377418518066 C -2.139282287316746e-06 5.141464710235596 5.25401782989502 4.600524789566407e-06 11.73517799377441 4.600524789566407e-06 L 21.79389762878418 4.600524789566407e-06 L 21.79389762878418 9.843235015869141 C 21.79389762878418 16.18554496765137 16.53987693786621 21.32700538635254 10.05871772766113 21.32700538635254 L -2.139282287316746e-06 21.3270149230957 Z"/></g><g class="d" transform="translate(66 187.238)"><path class="f" d="M17,0H36.8a17,17,0,0,1,17,17V46a0,0,0,0,1,0,0H0a0,0,0,0,1,0,0V17A17,17,0,0,1,17,0Z"/><path class="h" d="M17,1.5H36.8A15.5,15.5,0,0,1,52.3,17V43a1.5,1.5,0,0,1-1.5,1.5H3A1.5,1.5,0,0,1,1.5,43V17A15.5,15.5,0,0,1,17,1.5Z"/></g><g class="d" transform="translate(61 218.641)"><rect class="f" width="63.8" height="41" rx="15"/><rect class="h" x="1.5" y="1.5" width="60.8" height="38" rx="13.5"/></g><g transform="translate(79.9 199.23)"><rect class="e" width="4" height="11" rx="2" transform="translate(22)"/><rect class="e" width="4" height="11" rx="2"/></g><g transform="translate(79.9 227.442)"><path class="e" d="M.255,7V7A4.535,4.535,0,0,1,0,5.5v-1a4.5,4.5,0,0,1,9,0v1A4.49,4.49,0,0,1,8.745,7,4.5,4.5,0,0,0,.256,7Z"/><path class="e" d="M.255,7V7A4.535,4.535,0,0,1,0,5.5v-1a4.5,4.5,0,0,1,9,0v1A4.49,4.49,0,0,1,8.745,7,4.5,4.5,0,0,0,.256,7Z" transform="translate(17)"/></g></g></g></svg>