<svg xmlns="http://www.w3.org/2000/svg" xmlns:xlink="http://www.w3.org/1999/xlink" width="24" height="24" viewBox="0 0 24 24"><defs><style>.a{fill:#fff;stroke:#707070;}.b{clip-path:url(#a);}.c{fill:#4b4b4b;}</style><clipPath id="a"><rect class="a" width="24" height="24" transform="translate(135 507)"/></clipPath></defs><g class="b" transform="translate(-135 -507)"><path class="c" d="M12,24a3.987,3.987,0,0,1-3.814-2.792,4.016,4.016,0,0,1-1.842.448,4,4,0,0,1-3.552-5.842,4,4,0,0,1,0-7.629A4,4,0,0,1,8.186,2.792a4,4,0,0,1,7.629,0,4.016,4.016,0,0,1,1.842-.448,4,4,0,0,1,3.551,5.842,4,4,0,0,1,0,7.629,4,4,0,0,1-5.394,5.394A3.988,3.988,0,0,1,12,24ZM12,8a4,4,0,1,0,4,4A4,4,0,0,0,12,8Z" transform="translate(135 507)"/></g></svg>