<svg xmlns="http://www.w3.org/2000/svg" xmlns:xlink="http://www.w3.org/1999/xlink" width="112" height="112" viewBox="0 0 112 112"><defs><style>.a{fill:#fff;stroke:#707070;}.b{clip-path:url(#a);}.c,.d{fill:#f5f5f5;}.d{stroke:#4b4b4b;stroke-width:3px;}.e{fill:#4b4b4b;}.f,.g{stroke:none;}.g{fill:#707070;}.h{fill:none;}</style><clipPath id="a"><rect class="a" width="112" height="112" transform="translate(208 176)"/></clipPath></defs><g class="b" transform="translate(-208 -176)"><g transform="translate(171.1 17.762)"><g class="c" transform="translate(45.9 208.875) rotate(-60)"><path class="f" d="M 20.29389762878418 19.82700347900391 L 11.7351770401001 19.82700347900391 C 6.091476917266846 19.82700347900391 1.499996900558472 15.34830284118652 1.499996900558472 9.843233108520508 L 1.499996900558472 1.50000274181366 L 10.05871677398682 1.50000274181366 C 15.70241737365723 1.50000274181366 20.29389762878418 5.978702545166016 20.29389762878418 11.48377227783203 L 20.29389762878418 19.82700347900391 Z"/><path class="g" d="M 2.999996185302734 3.000001907348633 L 2.999996185302734 9.843233108520508 C 2.999996185302734 14.52120208740234 6.918586730957031 18.32700347900391 11.7351770401001 18.32700347900391 L 18.79389762878418 18.32700347900391 L 18.79389762878418 11.48377227783203 C 18.79389762878418 6.805802345275879 14.87530708312988 3.000001907348633 10.05871677398682 3.000001907348633 L 2.999996185302734 3.000001907348633 M -3.814697265625e-06 1.9073486328125e-06 L 10.05871677398682 1.9073486328125e-06 C 16.53987693786621 1.9073486328125e-06 21.79389762878418 5.141462326049805 21.79389762878418 11.48377227783203 L 21.79389762878418 21.32700347900391 L 11.7351770401001 21.32700347900391 C 5.254016876220703 21.32700347900391 -3.814697265625e-06 16.18554306030273 -3.814697265625e-06 9.843233108520508 L -3.814697265625e-06 1.9073486328125e-06 Z"/></g><g class="c" transform="translate(121.43 219.538) rotate(-120)"><path class="f" d="M 1.499997854232788 19.82701301574707 L 1.499997854232788 11.48377418518066 C 1.499997854232788 5.978704452514648 6.091477870941162 1.500004649162292 11.73517799377441 1.500004649162292 L 20.29389762878418 1.500004649162292 L 20.29389762878418 9.843235015869141 C 20.29389762878418 15.34830474853516 15.70241832733154 19.82700538635254 10.05871772766113 19.82700538635254 L 1.499997854232788 19.82701301574707 Z"/><path class="g" d="M 2.999997854232788 18.32701110839844 L 10.05871772766113 18.32700538635254 C 14.8753080368042 18.32700538635254 18.79389762878418 14.52120494842529 18.79389762878418 9.843235015869141 L 18.79389762878418 3.000004529953003 L 11.73517799377441 3.000004529953003 C 6.918587684631348 3.000004529953003 2.999997854232788 6.80580472946167 2.999997854232788 11.48377418518066 L 2.999997854232788 18.32701110839844 M -2.139282287316746e-06 21.3270149230957 L -2.139282287316746e-06 11.48377418518066 C -2.139282287316746e-06 5.141464710235596 5.25401782989502 4.600524789566407e-06 11.73517799377441 4.600524789566407e-06 L 21.79389762878418 4.600524789566407e-06 L 21.79389762878418 9.843235015869141 C 21.79389762878418 16.18554496765137 16.53987693786621 21.32700538635254 10.05871772766113 21.32700538635254 L -2.139282287316746e-06 21.3270149230957 Z"/></g><g class="d" transform="translate(61 187.238)"><rect class="f" width="63.8" height="56" rx="22"/><rect class="h" x="1.5" y="1.5" width="60.8" height="53" rx="20.5"/></g><g class="d" transform="translate(73 212.238)"><rect class="f" width="39.8" height="29" rx="14.5"/><rect class="h" x="1.5" y="1.5" width="36.8" height="26" rx="13"/></g><g transform="translate(79.9 201.23)"><rect class="e" width="4" height="11" rx="2" transform="translate(22)"/><rect class="e" width="4" height="11" rx="2"/></g><g transform="translate(84.755 219.23)"><rect class="e" width="4" height="11" rx="2" transform="translate(12.29)"/><rect class="e" width="4" height="11" rx="2"/></g></g></g></svg>